<?xml version="1.0" encoding="utf-8"?>
<!-- Generator: Adobe Illustrator 22.1.0, SVG Export Plug-In . SVG Version: 6.00 Build 0)  -->
<svg version="1.1" id="svg4468" xmlns:svg="http://www.w3.org/2000/svg"
	 xmlns="http://www.w3.org/2000/svg" xmlns:xlink="http://www.w3.org/1999/xlink" x="0px" y="0px" viewBox="0 0 1212.9 796.2"
	 style="enable-background:new 0 0 1212.9 796.2;" xml:space="preserve">
<style type="text/css">
	.st0{fill:#D3D3D3;}
</style>
<g transform="translate(-532.4669,4.043817)">
	<g id="Canada">
		<path id="CA-AB" class="st0" d="M846.8,94.3c-53.5-14.1-47.8-12-50.9-19.1l-2.7-6l2.2-11.1c2.3-11.7,2.2-14.6-0.9-20.7
			c-1-2.1-4-7.9-6.5-12.9s-5.6-12-6.7-15.5c-1.2-3.5-3.4-8.3-5-10.7c-1.6-2.4-3.2-6-3.6-8c-0.4-2-1.9-5.1-3.5-6.9
			c-1.6-1.8-2.9-3.8-2.9-4.3s-0.9-2.4-2.1-4c-1.2-1.7-2.5-5.8-3-9.6c-0.6-4.2-1.8-8-3.4-10.2c-1.3-1.9-2.9-4.7-3.4-6.2
			c-0.6-1.5-2.6-3.7-4.5-5c-3.5-2.3-4.8-5.9-2.6-7.3c0.6-0.3,1-3.1,1-6.2c0-5.4,6.6-24.3,51.2-146.9l4-11.1l22.1,7.4
			c12.2,4.1,30.7,9.9,41.1,12.9s28.9,8.5,40.9,12c12.1,3.5,22,6.5,22.2,6.7c0.7,0.7-3,15.3-4,16c-0.6,0.4-2.2,1-3.5,1.4
			c-2.5,0.7-13,11-13.1,12.9c0,0.6,1.6,1.8,3.5,2.8c3.4,1.6,3.7,1.6,6.4-0.3c1.6-1.1,3.2-3,3.5-4.1c0.4-1.1,0.9-1.8,1.1-1.6
			c0.3,0.3-1.3,7.8-3.5,16.8c-5.1,21.3-10.6,44.3-18.2,75.9c-3.3,14-7.2,30-8.5,35.5c-6.7,27.7-12.6,52.5-15.8,66
			c-17,71.2-15.5,65.6-16.5,65.4C861.1,98,854.5,96.3,846.8,94.3z"/>
		<g id="CA-BC">
			<path class="st0" d="M634.3,42c-6.4-4.1-16-16.6-16-20.9c0-2.4-0.6-3.2-2.9-4.1c-3-1.1-5.2-5-6.6-11.2c-0.3-1.7-1.6-4.6-2.9-6.5
				c-1.2-1.9-3-5.5-4-8c-1-2.5-3.6-7.5-5.8-11.3c-2.4-4.1-4.6-9.2-5.3-13c-0.7-3.4-1.9-7.7-2.6-9.5c-1.3-3.1-1.2-3.4,1.6-5.7
				c1.6-1.3,3.8-2.5,4.9-2.5c2,0,7.9,5.7,17.6,16.9c3,3.5,6,6.9,6.5,7.5c0.6,0.6,2.6,3.1,4.5,5.6s3.7,4.7,4,5
				c1.4,1.2,3.9,10,4.6,15.9c0.6,5.6,1.3,7.2,5.6,12.9c5.8,7.6,6.3,8.7,7.2,16.6c0.4,3.2,1.3,7.6,2.1,9.7c0.7,2.1,1.1,4.1,0.7,4.4
				C646.1,45.2,637.7,44.1,634.3,42z"/>
			<path class="st0" d="M792.8,79.7c-0.9-0.3-21.5-6.7-37.5-11.7c-5.5-1.7-63.9-23.6-88-33c-4.1-1.6-8.8-3.4-10.5-4
				c-3.8-1.4-4.5-2.4-4.5-7c0-2.6-0.7-4.3-2.1-5.5c-5.8-4.8-7.9-7.2-7.9-9.1c0-1.2-0.4-2.1-0.9-2.1c-2.4,0-5.9-5.3-6.5-9.9
				c-1-7.5-4.3-14-10.2-20c-5.3-5.4-5.3-5.5-4.8-10.3c0.5-3.9,0.3-4.8-0.9-4.8c-0.8,0-1.7-0.4-1.9-0.8c-0.2-0.4-2.5-2-5.1-3.5
				c-2.6-1.5-4.8-3.3-4.8-4c0-0.7-0.3-2.1-0.5-3.2c-0.6-2.7-0.6-4.5-0.5-15.2c0.1-9,0.2-9.3,3.2-11.8c2.8-2.4,3-2.8,1.9-5.7
				c-0.6-1.7-1.1-4.9-1.1-7.1c0-3-1-5.3-4-9.7c-3.4-4.8-3.9-6.3-3.5-9.2c0.3-1.9,1.5-4.2,2.6-5.1c2.3-1.9,2.1-3.5-1.4-10.3
				c-1.7-3.4-2-5.9-2-17c0-12.5,0.1-13,2.6-15.5c1.4-1.4,4.9-3.4,7.9-4.5c7.2-2.7,12.9-7.8,12.9-11.6c0-4,2.2-8.7,5.9-12.8
				c2.8-3.1,3.1-4.1,3.1-9.6c0-5.6-0.3-6.4-3-8.8c-3.4-3.1-9.4-14.4-11.1-20.9c-1-3.9-0.8-6,1.6-15.7c2.4-9.9,2.6-11.9,1.6-16.9
				c-0.6-3.1-1.3-9.9-1.7-15.2c-0.3-5.2-0.8-10.4-1-11.6c-0.2-1.2-0.7-3.9-1-6c-0.3-2.1-1.9-9.5-3.5-16.4
				c-1.6-6.9-3.2-13.5-3.5-14.7c-0.3-1.4-1.9-2.8-4.2-3.8c-7-2.9-7.9-2.9-9.9,0.4c-1.3,2.2-3.4,3.6-7.9,5.2c-3.3,1.2-7.8,3-10,4.1
				c-2.2,1-4,1.9-4.2,1.9c-0.1,0,0.2-1.5,0.6-3.2c1.4-5,0.5-17-1.5-20c-2.1-3.1-1.8-12.4,0.4-12c0.7,0.2,10.8,6.5,22.5,14.1
				c31.7,20.7,66.3,41.8,83.1,50.6c8.2,4.3,15.4,8.1,16,8.5c2.7,1.9,33.6,17.5,45,22.8c7.2,3.3,22.7,9.7,34.5,14.2
				c11.8,4.6,21.9,8.6,22.3,9s0.3,1.8-0.2,3.1c-0.6,1.3-5.8,15.7-11.6,31.9c-5.8,16.2-12.3,34.2-14.5,40c-23.1,63-28,77.3-28,82.3
				c0,3-0.6,6.1-1.5,7.3c-2.2,3.1-0.9,7.4,2.8,9.8c4.7,3,10.7,14.2,11.4,21.2c0.4,3.8,1.5,7.2,3.4,10.2c1.6,2.5,2.8,4.9,2.8,5.5
				c0,0.5,1.1,2.1,2.4,3.6c1.3,1.4,2.9,4.7,3.6,7.3c0.7,2.6,1.7,5,2.2,5.3c1.3,0.8,5.4,9.4,6.3,12.9c0.4,1.7,3.9,9.5,7.8,17.4
				c4.1,8.3,7.1,15.7,7.1,17.5c0,1.7-0.8,7.3-1.7,12.5c-1.8,9.7-1.5,13.8,1.1,17.9C794.7,79.4,794.6,80.2,792.8,79.7z"/>
			<path class="st0" d="M563.6-109c-4.1-9.4-5.6-20.6-4.9-36.6c0.4-9.3,1-14.9,1.9-15.9c0.7-0.8,1.3-2.3,1.3-3.1
				c0-2.6,4.3-2.5,8.3,0.2c4.8,3.2,11.2,9.6,11.2,11.1c0,0.7-4,5.4-9,10.6c-10.5,11-10.7,11.5-6.5,26.5c1.4,4.9,2.5,9.8,2.5,10.7
				C568.3-102,565.8-103.9,563.6-109z"/>
		</g>
		<path id="CA-MB" class="st0" d="M1040.6-167.9l-0.7,6.3c-0.4,3.5-0.9,7-1,7.8s-0.6,4-1,7s-0.9,6.2-1,7c-0.1,0.8-1,7.3-2,14.4
			c-1.6,12.2-1.6,13.1,0,15.8c1.7,2.8,1.6,2.9-1.1,6.4c-1.6,2-3.3,4.3-4,5.2c-0.6,0.9-1.5,7.5-1.8,14.6s-0.8,14.8-1,17
			c-0.2,2.2-0.6,8-1,13s-0.8,11.7-1.1,15c-1,13.7-1.5,19.4-2,27c-0.3,4.4-0.8,10.2-1,13s-0.7,9.5-1,15s-0.8,11.8-1,14
			s-0.6,8.7-1,14.5s-0.8,12.1-1,14s-0.6,8.7-1,15s-0.8,12.2-1,13c-0.5,2.7-1.9,25.4-1.9,32l-0.1,6.5l6,0.6c9.6,1,18.8,2,21.5,2.4
			c1.4,0.2,5,0.6,8,1c5.8,0.6,9.1,1,18,2.1c3,0.4,9.8,1,15,1.3s14.1,0.8,19.7,0.9l10.1,0.3l0.6-4.8c0.3-2.6,0.8-10.2,1.1-16.8
			c0.3-6.6,0.7-15.2,1-19c0.2-3.8,0.7-13.8,1-22c1.1-28.6,1.4-31.5,3.8-35.5c1.2-2,8.3-10.2,15.8-18.1s15.6-16.6,18-19.3
			c2.4-2.7,4.9-5.5,5.4-6.1c9.6-10.8,14.3-16.2,19.4-22.4c3.4-4.1,9.4-10.9,13.2-15.1s8.5-9.4,10.3-11.5c1.9-2.1,5.7-6.3,8.5-9.4
			c2.8-3,5.1-6,5.1-6.6c0-1.1-5.2-3.3-9.8-4c-6.9-1.1-8.8-1.8-10-3.4c-1-1.4-2.6-1.7-7.3-1.6c-3.3,0.1-6.4,0.6-6.8,1.2
			c-0.8,1.2-12.4,2.7-14.6,1.8c-1-0.4-1.2-1.2-0.7-2.7c0.8-2.1,0.6-3.3-2.2-16.8c-2-9.6-2.6-12.5-3.2-18c-0.8-6.3-3.4-8.2-13.8-10.4
			c-6.7-1.4-9-2.3-9.8-3.9c-1.2-2.3-1.2-10.2,0.1-20.9l0.8-6.8l-5.3-0.1c-2.9-0.1-5.7-0.2-6.1-0.3s-4.1-0.5-8.2-1s-8.2-0.9-9-1.1
			c-0.8-0.1-4.6-0.6-8.4-1c-3.8-0.4-7.9-0.9-9-1.1c-1.1-0.2-4.8-0.6-8.1-0.9s-9.6-1-14-1.5s-10.7-1.2-14-1.5s-8.1-0.8-10.7-1.2
			L1040.6-167.9z M1069.2,4c3.9,0,6.4,1.8,8.4,5.7c1.2,2.3,2.4,4.3,2.8,4.6c1.9,1.3,6.4,13.5,5.6,14.8c-0.5,0.9,1.3,6.4,3.2,9.9
			c0.7,1.2,1.1,4.6,1,7.5c-0.2,5.6,3.1,17.8,6.2,23.2c1.3,2.2,1.8,5.7,2.1,12.5c0.3,9.4,0.2,9.5-2.1,9.8c-1.3,0.2-3.2,1.4-4.3,2.8
			c-2.2,2.8-4,3-6.1,1c-1.7-1.7-1.2-8.9,0.9-12c0.7-1.1,1.6-3.3,1.8-4.9c0.3-1.6,1.1-3.5,1.8-4.3c2-2.4,1.9-4.8-0.2-6.1
			c-1.6-1-2.1-0.9-3.2,0.8c-1.4,2.2-3.8,2.7-3.8,0.8c0-0.6,0.5-2.6,1.2-4.3c2.7-7.4-1.7-13.9-8-11.7c-2.6,0.9-3.3,0.7-5-1.1
			c-1.1-1.2-2.6-4.3-3.5-6.9s-2.7-6.2-4-8c-1.7-2.3-2.3-4.2-2-6.3c0.4-2.7,0-3.2-4.4-5.6c-6.5-3.4-9.1-2.4-9.3,3.5
			c-0.1,2.3-0.3,6.3-0.5,9.1c-0.9,13.7-0.9,13.8,3.2,17c8.8,7,9.5,7.9,10.9,14c0.8,3.3,1.4,7.6,1.3,9.6c0,2,1.2,5.9,2.6,8.7
			c3.3,6.6,3.5,11.7,0.3,12.6c-3.3,0.9-4.6,0.8-5.3-0.5c-0.7-1.1-3.4-13.8-5.4-24.8c-1.1-6.2-2.6-8.1-9.5-12.6
			c-5.5-3.6-8.2-6.4-7.9-8.3c0.1-0.7,0.2-2.1,0.3-3.2s0.7-2.5,1.5-3.3c0.9-0.9,1.3-3.7,1.3-8c0-6.6,0-6.6-3.8-8.7
			c-4.3-2.4-5.8-4.7-5.8-8.5c0-2.1,0.5-2.6,2.5-2.6c3.7,0,5-3.2,2.5-6.3c-1.1-1.4-2-3-2-3.6c0-1.3,4.7-3.4,7.4-3.2
			c2.4,0.1,7.6,5,7.6,7.2c0,0.9,1,2.6,2.3,3.8l2.3,2.2l1.3-3.6c2.2-6.2,6.3-11.3,9.6-12.1C1066.4,4.2,1067.9,4,1069.2,4z"/>
		<path id="CA-NB" class="st0" d="M1616.9,182.5c-2.3-0.6-5-3.7-6.7-7.5c-0.6-1.5-2.2-3-3.4-3.3c-4.1-1-10.5-17.7-10.5-27.4
			c0-3.3-0.6-5-2.3-6.6c-3.9-3.7-9.1-6.4-12.4-6.4l-3.2,0l-0.4-6.2c-0.2-3.4-0.2-6.6,0-7s3.1-0.8,6.6-0.8c7.4-0.1,11.4-1.4,15.6-5.2
			c1.9-1.7,5.9-3.5,10.5-4.8c6.9-1.9,7.7-1.9,11.2-0.5c3.6,1.5,3.8,1.5,5.7-0.6c4.1-4.4,15.7-7.8,15.7-4.7c0,0.7-0.7,2.4-1.5,3.8
			c-2.1,3.7-1.9,12.2,0.4,15.1c1,1.3,2.2,3.9,2.6,5.7c0.4,2,2.5,5,5.4,7.8c4.5,4.3,4.9,4.4,10.7,4.4c3.4,0,6.4,0.3,6.7,0.6
			c0.3,0.3-1.7,2.9-4.4,5.8c-2.7,2.8-6.1,7.6-7.5,10.5c-3.6,7.5-16.1,20.2-19.9,20.2c-2.2,0-3.2,0.7-4.1,2.8
			C1629.8,182.1,1623.2,184.1,1616.9,182.5z"/>
		<g id="CA-NL">
			<path class="st0" d="M1728.5,72.7c-2.8-3.5-2.7-7.8,0.2-11.7c3.1-4.2,3.4-9.3,0.7-10.2c-2.6-0.8-2.5-2.9,0.1-7.2
				c1.9-3.1,2.1-4.3,1.5-12.1c-1-14-0.7-30.4,0.9-46.7c0.1-1.1,0.5-5.6,1-10c0.9-9.2,2.7-12.6,9.9-18.1c3.9-3,5-3.4,6.2-2.3
				c3.7,3.1,4.5,6.7,4.1,18.9c-0.2,6.5-0.7,12.2-1,12.7c-0.3,0.5-0.8,3.6-1.2,6.9l-0.6,6l2.5-3c1.4-1.7,2.6-3.3,2.6-3.7
				c0.1-1.5,4.2-1.9,7.5-0.7c3.7,1.3,3.8,1.5,3.5,6.6l-0.2,3.2h5c2.8,0,5.3-0.4,5.6-0.9c0.3-0.5,2.7-1.5,5.3-2.2
				c2.6-0.7,7-2.4,9.8-3.6c5-2.3,9.5-2.4,13.6-0.2c2.2,1.1,3.2,6.5,1.6,8.9c-1,1.6-0.9,2.3,0.8,3.9c1.7,1.7,2.7,1.9,7,1.2
				c6.4-1,7.4-0.6,7.4,2.7c0,2.8-2.1,6.5-5.3,9.4c-1.1,1-1.4,1.8-0.8,1.8c0.6,0,1.2,1.5,1.2,3.4c0,1.9,0.3,4.1,0.6,5
				c0.7,1.8,2.4,2.1,2.4,0.4c0-1.9,5-7.8,6.5-7.8c0.8,0,1.9,1.8,2.6,4c1.4,4.6,2.7,4.9,6.9,1.8c1.6-1.2,3.3-1.8,3.7-1.4
				c0.4,0.4,0.9,3.8,1,7.4c0.1,3.7,0.3,8.3,0.4,10.4c0.2,5.4-3.8,11.2-8,11.6c-2.5,0.2-3.4-0.3-4.3-2.3c-1.4-3.2-2.1-3.2-3.8,0
				c-2.7,5.1-4.9,1.9-6.1-8.7c-0.9-7.8-2-10.8-4-10.8c-0.5,0-0.9,1.6-0.9,3.7c0,3-0.8,4.4-3.9,7.4c-3.6,3.4-4,4.4-4.9,11
				c-1.3,9.7-3.7,12.3-11.6,12.5c-6.8,0.2-7.3-1.4-2-6.4c2.9-2.7,3.5-4,3.5-7.3c0-3.7-0.1-3.9-2.1-2.8c-3.8,2-8.1,2.9-9.3,1.9
				c-1.2-1-2.9-0.2-13,5.8c-3,1.8-6.8,3.5-8.3,3.8c-1.5,0.2-4.3,0.7-6.2,1c-1.9,0.3-8,2.4-13.5,4.6c-5.5,2.2-10.6,4.2-11.2,4.5
				C1731.1,75.2,1729.6,74.2,1728.5,72.7z"/>
			<path class="st0" d="M1604.2,0.8c-0.2-0.2-2-0.5-4.1-0.8s-4.7-1.3-5.7-2.2c-1.5-1.4-3.1-1.6-7.7-1.2c-7.3,0.6-8.1,0.3-8.8-3.5
				c-1.2-6.4-1.3-7.2-1.4-8.4c0-0.6-0.8-1.9-1.6-2.7c-1.4-1.4-1.9-1.3-4.8,0.4c-1.8,1.1-4.2,2-5.3,2c-2.5,0-6-3.5-4.5-4.5
				c1.1-0.7,1.4-6.7,0.5-10.2c-0.4-1.3-2.1-2.8-4.7-3.8c-7.4-2.9-15.1-14.9-12.6-19.6c0.6-1.1,1.5-2,2-2c1,0,2.8-3.8,3.3-7.3
				c0.2-1.1,1.3-2.7,2.4-3.6c1.2-0.9,2.6-2.8,3.1-4.3c0.9-2.5,1.2-2.6,5.3-1.7c2.4,0.5,5.4,1.7,6.8,2.7c3.5,2.4,7.2,1.7,9.5-1.9
				c1.9-2.9,2.2-3,7-2.3c2.8,0.4,5.8,0.7,6.8,0.6c1.4-0.1,1.7,0.6,1.4,3.4c-0.2,1.9-0.6,3.6-0.8,3.7c-4.4,3-7.9,6-8.3,7.4
				c-0.3,1-1.9,2.7-3.6,3.8c-3.5,2.3-3.7,3.5-1,6c2.4,2.2,8.3,1.4,10.3-1.3c2.3-3.3,7.4-5.1,11-4c4.7,1.4,8.3-0.3,10.4-4.9
				c1.8-3.9,2-9.1,0.4-10.6c-0.5-0.5-1.8,0-3,1.2c-1.3,1.3-3.4,2.1-5.5,2.1c-7.5,0-8.2-2-3.6-10.7c1.7-3.1,3-6.6,3-7.9
				c0-3-3.3-10.6-5.4-12.3c-0.9-0.7-1.6-2.1-1.6-3c0-2.8-5-11.5-8.2-14.3c-2.1-1.9-3.3-4-3.8-7c-0.4-2.4-1.3-7.2-1.9-10.8
				c-0.6-3.6-1.2-9.4-1.2-13c-0.1-7.5-1.9-11.6-5.7-12.4c-1.4-0.3-4.1-1.5-5.8-2.6c-3.6-2.3-4.2-5.2-1.7-8.8c1-1.5,1.2-2.9,0.6-4.5
				c-0.9-2.4-0.9-3.3,0.3-8.7c0.8-3.4,0.2-3.6-8.9-3.3c-2.2,0.1-3.7-0.1-3.4-0.4c0.3-0.3-0.2-3.8-1.2-7.8c-1.3-5.7-2.1-7.3-3.6-7.5
				c-1.1-0.2-2.4-1.1-3-2.1c-1.4-2.3-5.5-17.3-4.9-17.9c1-1,12.7,9.3,16.7,14.8c2.4,3.3,5.1,5.9,6,5.9s2.6,1.3,3.8,2.9
				c1.1,1.6,3.6,3.9,5.4,5c2.2,1.4,4.1,3.8,5.5,7.1c1.4,3.2,2.8,5,3.9,5c0.9,0,2.7,1.5,3.9,3.4c1.7,2.6,3.1,3.5,6.2,4
				c3.5,0.6,4.4,1.2,6.3,4.9c1.2,2.3,2.5,6,2.8,8.2c0.5,3.7,0.9,4,5.2,5.3c2.5,0.7,5.4,2.1,6.3,3.2c1.6,1.7,1.6,2.3,0.2,6.8
				c-1.2,4.1-1.2,5.3-0.1,7.3c0.7,1.3,1.6,3.6,1.9,4.9c0.5,2.2,2,3,11.3,6.3c5.9,2.1,11.6,3.8,12.6,3.8c1,0,3.5,1.9,5.6,4.1l3.8,4.1
				l8.9,0.4c4.9,0.2,10.6,1.1,12.7,1.9c3.9,1.5,6.3,0.9,9.4-2.1c1-1,2.8-0.8,8.5,0.8c4,1.1,7.6,2.4,7.9,2.9c1.3,2-0.4,5.7-3.1,6.8
				c-1.5,0.6-5.2,3.9-8.1,7.2c-2.9,3.3-6.7,7.5-8.3,9.2c-1.6,1.7-5.1,5.4-7.7,8.1c-4.8,5.1-7,11.1-4.4,12c2.1,0.8,12.4-10,13.1-13.8
				c0.4-2.4,3-5.9,8.3-11.6c6.9-7.4,8-8.2,11.4-8.2c3.1,0,4.1,0.6,6,3.3c1.9,2.8,2.7,3.2,4.8,2.6c4.7-1.3,9.7-0.9,12.1,0.9
				c1.3,1,5.1,3.4,8.4,5.2c3.3,1.8,6.1,3.4,6.3,3.5c0.2,0.1-0.3,1.4-0.9,2.8c-1.7,3.7,0.3,9.7,4.6,14c3.3,3.3,7.5,10.4,7.5,12.6
				c0,1.6-6.8,12.1-10.3,15.7l-3,3.2l-4.1-5.2c-2.2-2.9-4.5-5.5-5-5.9c-0.5-0.4-2.6,0.1-4.5,1.1s-5.9,2.3-8.8,3
				c-2.9,0.7-8.5,2.5-12.5,4c-4,1.5-12.2,4.7-18.3,7s-13.1,5.1-15.8,6.1c-9.5,4-30.3,11.2-34.2,11.8c-3.2,0.6-5.1,0.2-9.6-2
				c-3.1-1.5-6-2.4-6.6-2.1c-0.6,0.4-1.1,2.5-1.2,4.7c-0.2,4.9-1.2,13.9-1.7,14.4C1609.3,0.6,1604.6,1.1,1604.2,0.8z"/>
		</g>
		<g id="CA-NS">
			<path class="st0" d="M1651,214.9c-5.8-1.3-8.7-4.6-11.1-12.8c-1.2-4.1-1.3-6.4-0.7-8.2c1.5-3.9,8.1-13.6,12.4-18.4
				c2.1-2.3,4.5-5.1,5.2-6.1s2.5-2.2,3.9-2.5c2.8-0.7,11.5-6.6,11.5-7.8c0-1-4.5,0.7-9.8,3.8c-9.2,5.4-7.9-3.4,2.2-14.9
				c4.5-5.1,5.5-5.8,8.6-5.7c9.5,0.3,20.2-1.4,23.7-3.8c2.2-1.5,4.2-2.1,5.2-1.7c0.9,0.4,3.7,0.8,6.2,0.9c5.3,0.2,9.4,2.5,11.1,6.2
				c1.1,2.3,0.7,3-5.3,8.9c-3.5,3.5-7.1,7.1-7.9,8c-3.6,3.8-12.4,10.5-14.4,11c-1.3,0.3-3.5,2.6-5.2,5.5c-2.7,4.6-3.2,4.9-6,4.5
				c-2.6-0.4-3.3,0-4.2,2c-0.6,1.4-1.1,2.9-1.1,3.5s-1.4,4.3-3,8.2c-2.3,5.5-4.6,8.9-9.5,13.9c-3.6,3.7-6.6,6.6-6.7,6.6
				C1655.9,216,1653.7,215.5,1651,214.9z"/>
			<path class="st0" d="M1718.3,139c-0.8-0.7-3.7-3.6-6.4-6.5c-3.6-3.8-4.6-5.6-3.8-6.5c0.6-0.7,2.4-5.4,4.1-10.5
				c3.4-10.3,6.7-17.2,8.1-17.2c1.8,0,4,4.5,4.1,8c0,5.7,1,7.8,3.8,8.5c3.5,0.9,8.2,5.4,8.2,7.9c0,1.1-1.4,4.2-3.1,6.8
				c-2.3,3.5-3.7,4.8-5.4,4.8c-1.4,0-3.1,1.1-4.5,3C1721,140.6,1720.5,140.7,1718.3,139z"/>
		</g>
		<path id="CA-ON" class="st0" d="M1336.8,315.3c1.1-2,2.4-3,5.2-3.4c2.1-0.3,4.4-1,5.1-1.5c1.9-1.2,2.8-8.2,1.3-9.1
			c-0.9-0.5-1-1.3-0.3-2.6c0.5-1,1.3-3.6,1.6-5.6c0.4-2,1.5-4.3,2.5-5c3.6-2.5,6.7-8.4,6.4-11.9c-0.2-1.9-0.4-7-0.5-11.5
			c-0.1-7.6,0.1-8.5,3.4-14.5l3.6-6.4l-1.8-4c-1-2.2-2.8-4.8-3.9-5.9c-2.1-1.9-2.9-4.6-1.4-4.6c0.4,0,3.4,2.7,6.6,6
			c5.3,5.4,10.7,8.9,16.1,10.4c5.5,1.5,8.5-7.7,4.4-13.5c-2.6-3.8-13.5-15.6-16.3-17.7c-1-0.8-4.9-1.8-8.5-2.2
			c-3.6-0.4-9.1-1.5-12.1-2.3c-3.9-1.1-9.7-1.6-20.2-1.6c-13.7,0-14.8-0.1-16.2-2.1c-0.8-1.1-3.8-3.3-6.7-4.8
			c-4.3-2.2-5.3-3.2-5.4-5.4c-0.1-1.5-1.4-4-3-5.7c-2.5-2.6-2.6-3.1-1.2-3.6c2.2-0.9,2.1-3-0.4-6.5c-1.1-1.6-2.9-4.8-4-7.3
			c-1.7-3.9-2.4-4.5-5.8-5c-3.8-0.6-14.5-5.7-17-8.2c-0.8-0.7-1.5-3-1.6-5.1c-0.1-2.1-0.6-5.1-1-6.7l-0.8-2.9l-8.1,0.5
			c-7.5,0.5-8.5,0.3-13.9-2.4l-5.8-2.9l-4.1,2.6c-3.8,2.4-4,2.7-2.6,4.2c1.4,1.4,1,2-5.1,5.9c-3.7,2.4-8.3,6.1-10.3,8.2
			c-4,4.3-4.5,4.4-18.9,2c-4.1-0.7-10.7-1.3-14.6-1.4c-6.7-0.2-13.4-2.6-13.4-4.7c0-0.4-1.2-0.8-2.6-0.8c-1.6,0-4-1.4-6.2-3.5
			c-3.7-3.5-3.8-3.5-12.9-3.5c-6.6,0-9.6-0.4-10.6-1.4c-0.8-0.8-3.2-1.7-5.3-2.1c-5.5-1-6.1-1.7-6.8-8.7c-0.6-5.7-0.9-6.4-3.9-7.8
			c-3.1-1.5-3.2-1.8-3.1-7.5c0.1-6.4,1.3-33.2,1.9-42.9c0.2-3.3,0.7-13.2,1-21.9c0.8-20-0.9-16.8,22.9-41.6c5-5.2,12-12.8,15.6-16.9
			c3.6-4.1,6.9-7.9,7.5-8.5c0.6-0.6,6.4-7.4,13-15.1c6.6-7.7,14.2-16.5,17-19.5c13.5-14.9,19.5-21.7,21.3-24l2-2.5l3.3,1.9
			c4.1,2.3,10.8,8.6,10.8,10.1c0,0.6,1.5,2.5,3.3,4.3c2.4,2.4,4.8,3.5,9.2,4.3c4.1,0.8,6.9,2,9,4c2.9,2.7,5.4,3.6,10,3.8
			c1.1,0,4.5,2.3,7.5,4.9l5.4,4.8l18.7,0.6c16.3,0.5,19.3,0.9,22.9,2.7l4.1,2.1l-0.7,8.7c-0.4,4.8-1.1,9.1-1.5,9.5
			c-0.5,0.5,0,2.2,1,4c1,1.7,2.2,5.1,2.5,7.6c1.1,8,1.3,8.8,2.2,10.7c0.5,1,0.8,3.9,0.6,6.4c-0.3,3.7,0.3,5.5,2.7,9.3
			c3.9,6.1,15.9,20.6,17.1,20.6c2.3,0,8.7,8.3,10.5,13.5l1.9,5.7l6.2-0.5l6.2-0.5l0.6,5.1c1,8.1,1.4,11.7,2,17.6c0.3,3,0.7,6.6,1,8
			c0.2,1.4,0.7,5.2,1,8.5c0.3,3.3,0.8,7.1,1,8.5c0.5,3.3,1.4,11.3,2.1,17.5c0.3,2.8,0.7,6.6,1,8.5c1.5,12,2.5,20.2,3,25.4
			c0.3,3.2,2,8.9,3.6,12.6c2.5,5.7,3.9,7.4,8.8,10.8c6.5,4.6,15.5,7.8,24.6,8.7c4.1,0.4,7.4,1.5,10.6,3.6c2.5,1.6,5.4,2.9,6.5,3
			c1.1,0,3.1,1.7,4.6,3.9l2.7,3.9l8.6-0.5c7.5-0.4,9.5-0.9,14.9-3.9c6.3-3.5,11.4-5.1,11.5-3.6c0.2,1.5,0.7,4.1,1.4,6.2
			c0.5,1.7-0.1,2.8-3.1,5.4c-6.2,5.3-11.4,10.8-18.8,20c-3.8,4.8-7.4,8.7-8,8.8c-1.7,0.1-5.7,3.9-5.1,4.8c1.2,1.9-6.9,4.9-13.5,5.1
			c-11.9,0.4-29.1,7.4-32.8,13.5c-3.6,6-3.6,7.5,0.2,9c1.9,0.8,4.3,1.2,5.4,0.9c1.5-0.4,2.3,0.3,3.6,3c1.9,4.1,1.3,4.6-5.4,4.6
			c-4,0-15,4.1-17.8,6.7c-1.3,1.2-1.2,1.6,1,3.3l2.5,1.9l-2.7,0.7c-1.5,0.4-4.7,0.2-7.2-0.4c-9.5-2.4-11.7-1.3-23.5,11
			c-6.5,6.8-8,7.9-11,7.9c-1.9,0-5,0.2-6.7,0.4l-3.2,0.3L1336.8,315.3z"/>
		<path id="CA-PE" class="st0" d="M1688,137.6c-0.3-0.3-4.3-0.7-8.8-0.9c-4.6-0.2-10.8-1.1-13.8-2c-6.7-2-8.1-2.3-10-2.4
			c-4.1-0.2-4.5-1.7-2-7c1.3-2.8,3-5.1,3.7-5.1c0.7,0,3.3,2,5.8,4.3c3.6,3.5,4.7,4.1,5.6,3c0.7-0.8,3.1-1.3,6.1-1.3
			c2.7,0,5.7-0.4,6.6-0.9c3.2-1.7,12.1-4,12.6-3.2c0.3,0.4-0.2,2-0.9,3.5c-0.8,1.5-1.5,4.7-1.6,7.1
			C1691,136.7,1689.5,139,1688,137.6z"/>
		<g id="CA-QC">
			<path class="st0" d="M1486.1,211.5c-0.9-1.5-1.8-4.3-2-6.2c-0.4-3.3-0.6-3.5-4.5-3.8c-4.1-0.3-9.5,1.8-15.4,5.9
				c-2,1.4-4.4,1.9-10.1,1.9c-7.4,0-7.5,0-9.8-3.5c-1.3-1.9-3.2-3.5-4.3-3.5s-4.2-1.4-7-3.1c-3.5-2.2-6.7-3.3-10.6-3.6
				c-8.4-0.7-17.8-3.8-23.6-7.8c-4.2-2.9-5.7-4.8-8.2-10.3c-1.8-4.1-3.3-9.3-3.7-13.2c-0.4-3.6-0.8-7.8-1-9.5s-0.9-7.3-1.5-12.5
				s-1.3-11.1-1.5-13c-0.2-1.9-0.7-5.5-1-8s-1.9-16.2-3.5-30.5c-1.6-14.3-3.2-27.2-3.5-28.6c-0.5-2.3-0.2-2.7,2.6-3.2
				c2.9-0.6,3.1-0.9,2.5-3.7c-0.5-2.4-0.1-4,2.1-7.2c1.5-2.3,2.8-5.3,2.8-6.7s-1.8-6.3-4.1-11s-4.5-10.3-5.1-12.5s-1.8-5.1-2.8-6.4
				c-1.2-1.6-1.6-4-1.5-7.3c0.3-5.2-2.4-10.9-6-12.9c-1.1-0.6-1.9-2.1-1.9-3.7c0-1.5-0.9-3.8-2-5.2s-2-3-2-3.5
				c0-1.5,4.9-5.8,10.5-9.3c2.7-1.7,6.4-4.8,8.2-6.9s5.2-6,7.6-8.7c3-3.3,5.7-7.8,8.1-13.8c3.3-8.1,3.6-9.8,3.5-17.4
				c-0.1-6.2-0.9-10.6-2.9-16.7c-1.5-4.5-3-9.4-3.4-10.9c-1-4.6-10-14.2-16.4-17.7c-7.7-4.1-13.7-10.1-14-13.9
				c-0.1-1.6,0.5-4.7,1.5-6.9c0.9-2.1,1.8-4.6,2-5.4c0.1-0.8,1.2-2.2,2.3-3.2c1.6-1.3,2.1-2.8,2.1-6.4c0-3.4,0.6-5.4,2-6.9
				c1.8-1.9,1.9-2.4,0.5-6.2c-0.8-2.3-1.6-5.2-1.9-6.6c-0.6-3.1-3.2-8.2-6.2-12.2c-2.1-2.7-2.3-4.1-2.3-14.3c0-8.2-0.4-11.8-1.4-13
				c-0.8-0.9-2.7-4.7-4.2-8.5l-2.8-6.9l2.6-5.2c2.5-5,2.8-5.3,7.3-5.9c7.5-1,13.9-0.8,18.2,0.8c5.7,2,13.7,2.7,16.9,1.5
				c1.5-0.6,4.5-2.8,6.7-5s4.5-3.9,5-3.9c1.8,0,21.1,10.2,27.5,14.5c4.9,3.2,6,4.5,5.8,6.5c-0.1,1.4,0.6,3.6,1.5,5.1
				c1.5,2.3,2.7,2.7,12,3.8c5.6,0.7,12.4,1.9,15.1,2.8l4.9,1.6l-0.7,5.5c-0.7,5.3,0.1,8.8,4.7,21.8c0.6,1.7,1,4.2,1,5.7
				c-0.1,1.7,0.9,3.7,2.4,5.3c1.4,1.4,3.4,4.5,4.5,7l2,4.5l4.9-0.6c4.7-0.6,5.1-0.4,10.2,3.9c2.9,2.5,6.5,4.8,8,5.2s2.7,1.1,2.7,1.6
				c0,1.9,2.1,0.7,6.4-3.4c3.3-3.2,4.6-5.3,5.1-8.4c0.5-2.9,1.3-4.4,2.9-5.1c1.4-0.6,2.8-2.7,3.6-5.4c1.6-4.9,1.4-15.3-0.3-18.3
				c-0.6-1.1-1-2.5-0.8-3c0.2-0.5,0.7-3.4,1.3-6.5c0.9-5,3.3-8.5,5-7.5c0.4,0.2,1,2.1,1.3,4.2c0.9,4.7,5.2,12.3,6.9,12.3
				c1.2,0,4.1,10,3.6,12.5c-0.6,2.7,0.3,3.1,5.8,2.7l5.8-0.4l-0.2,6.4c-0.1,3.5-0.6,7.9-1.2,9.7c-0.7,2.2-0.7,4-0.1,5.2
				c1.2,2.2,6.5,5.6,10.2,6.5c3.4,0.8,3.6,1.7,4.3,13.5c0.3,5.2,1.2,11.7,1.9,14.5s1.7,6.6,2,8.6c0.4,2.4,1.6,4.3,3.7,5.8
				c3,2.2,7.9,11,7.9,14.2c0,0.9,0.8,2.4,1.9,3.3c1,0.9,2.6,3.4,3.6,5.5c1.7,3.7,1.7,4-0.4,8.6l-2.1,4.7l-5.3-0.5
				c-2.9-0.3-6.6-0.8-8.3-1.2c-2.7-0.6-3.3-0.3-5.5,2.9c-2.7,3.9-4.4,4.4-7,2c-1-0.9-4.5-2.1-7.8-2.8c-6.7-1.4-7.3-1.1-8.5,3.7
				c-0.4,1.6-1.7,3.3-3.1,3.9c-1.9,0.9-2.5,1.9-2.5,4.5c0,2.4-0.9,4.3-3.1,6.6c-2.7,2.8-3,3.7-2.5,7.3c0.3,2.2,1.2,5.2,1.9,6.7
				c2.3,4.4,8.2,10.4,12.3,12.4c4.3,2.1,5.1,4.5,3.1,10.2c-1.1,3.1-1,3.5,1.7,5.8c2.9,2.5,6.4,2.8,12.2,0.8c1.9-0.6,2.2-0.2,2.8,4.5
				c0.5,3.6,1.5,6,3.2,7.7c2.3,2.3,3,2.5,8,1.8c4.5-0.6,5.9-0.4,7.5,1.1c1.1,1,2.7,1.9,3.7,2.1c4.7,0.9,14.9,1.1,16,0.4
				c0.7-0.4,1.5-2.8,1.7-5.2c0.6-5.6,1.3-12.3,1.4-12.7c0-0.1,1.9,0.7,4.2,1.8c3,1.6,5.2,2,8.2,1.6c4.3-0.6,20.4-6,37.1-12.6
				c25.7-10.1,41.5-15.9,47.4-17.4c3.5-0.9,7-2.1,7.8-2.8c0.8-0.7,1.7-0.8,2.1-0.2c2.3,2.7,7.1,9.3,7.1,9.7c0,0.3-2.8,2.7-6.2,5.3
				c-9.2,7-14.6,13.2-15.3,17.3c-0.3,1.9-2.5,7.5-5,12.5c-2.5,5-4.9,10.1-5.4,11.5c-1.1,3.1-17.3,11.8-27.6,14.8
				c-3.9,1.1-12.4,3.6-19,5.5c-38.7,11.2-57.4,18.2-60.8,22.9c-1,1.4-2.3,4.7-2.8,7.4c-0.5,2.7-1.8,7.9-3,11.6
				c-1.8,5.9-2.4,6.8-4.5,6.8c-4.8,0-14.6,11.2-18,20.5c-1,2.8-3.3,7.3-5,10c-1.8,2.8-3.4,6.6-3.7,8.5c-1.1,8.4-16.5,33.2-24.5,39.6
				c-11.2,9-26.6,25.4-25.2,26.8c0.2,0.2,4.2-3.8,8.9-9c4.7-5.2,11.5-11.6,15.1-14.4c6.2-4.7,13-11.9,17.6-18.6
				c4.1-6,11.4-20.4,11.4-22.5c0-1.2,0.5-3.1,1.1-4.3c1.8-3.5,11-14.8,14.9-18.3c1.9-1.8,5.7-5.3,8.5-7.8c2.7-2.5,7.7-6.2,11-8.3
				c3.3-2,9.4-6,13.5-8.9c5.2-3.6,9.5-5.7,14-6.8c6.1-1.5,6.9-1.5,12.4,0.2c4.8,1.5,6.2,2.4,7.6,5.2c4,7.6,3.3,12.7-2.4,19.7
				c-5.6,6.8-7.6,8.1-13.5,8.7c-11.5,1.2-21,3.9-24.2,6.8c-4.1,3.8-7.4,4.9-15.3,5.2c-9.5,0.4-10,1-9.2,11.1l0.6,8.2l-3.9,0.6
				c-2.1,0.3-5.1,0.4-6.5,0.1c-2-0.4-3.1,0.1-4.3,1.8c-2,2.8-6.2,16.6-7,22.8c-0.3,2.5-1,7.4-1.5,11s-1.2,8.4-1.4,10.8
				c-0.8,7.7-3.8,14.3-7.7,17.1c-2,1.4-4.6,4-5.9,5.8c-1.2,1.8-3.2,3.5-4.4,3.7c-1.2,0.2-9.4,2-18.3,4c-8.9,2-18.6,3.6-21.5,3.6
				C1488.3,214.2,1487.6,213.9,1486.1,211.5z"/>
			<path class="st0" d="M1649.4,58.4c-1.4-0.2-3.6-1.2-5-2.1c-1.4-1-5.1-2.3-8.2-3c-7.1-1.5-8.5-4.1-4.2-7.7
				c2.3-1.9,4.2-2.4,9.4-2.5c13.7-0.3,18.6,0.3,27.8,3.3c9.1,3.1,9.2,3.2,9.2,6.4c0,3.8-0.4,4-11.5,4.9
				C1654.7,58.8,1652.1,58.9,1649.4,58.4z"/>
		</g>
		<path id="CA-SK" class="st0" d="M1007.3,124.9c-0.2-0.2-4-0.7-8.4-1.1s-9.1-0.8-10.5-1s-5.4-0.7-9-1s-7.6-0.8-9-1s-5.4-0.7-9-1
			s-17.5-3.1-31-6.2s-25.2-5.6-26-5.8c-4.5-1-7.1-1.6-13-2.9c-3.6-0.8-7.4-1.7-8.5-1.9c-1.1-0.2-5.5-1.2-9.8-2.1
			c-6.3-1.4-7.7-2.1-7.3-3.4c0.5-1.5,8.3-33.8,9-37.1c0.2-0.8,1.7-7.3,3.5-14.5c1.7-7.2,4.7-19.7,6.7-28s5.8-24.2,8.5-35.5
			c2.7-11.3,5.2-21.4,5.4-22.5c0.2-1.1,1.8-7.6,3.4-14.5c1.7-6.9,5.1-21.1,7.6-31.5c2.5-10.5,6.1-25.3,7.9-33s5-20.8,7-29.2
			l3.7-15.2l5.2,0.4c2.8,0.2,7.4,0.8,10.1,1.2c2.7,0.4,8.4,0.3,12.7-0.2c7.3-0.9,8.1-0.8,13.8,1.8c5.7,2.5,8.1,2.7,8.1,0.6
			c0-1.1-21.2-11.5-26.5-12.9c-2.2-0.6-5-1.1-6.2-1.1c-1.2,0-3.2-0.9-4.2-2c-2.2-2.2-5.1-2.6-8.1-1c-2.3,1.2-2.3,0.9-0.8-6
			c0.9-4,1.4-5,2.8-4.6c1.5,0.4,8.5,1.9,15.2,3.1c1.3,0.3,3.3,0.6,4.4,0.9c3.3,0.7,44.8,8.8,47.5,9.2c1.4,0.2,7.9,1.5,14.5,2.8
			s13.8,2.6,16,2.8c3.9,0.4,4,0.5,3.8,3.8c-0.1,1.9-1.3,11.8-2.7,21.9s-2.9,20.8-3.2,23.5c-0.6,4.9-1.8,7.5-3.5,7.5
			c-1.5,0-7.5,6.6-8.8,9.8c-0.9,2.3-1,4-0.2,6.4c2.2,7.1,1.8,10.5-1.6,14c-2.2,2.3-2.9,3.7-2.3,4.7c0.7,1.1,1.5,0.9,4-1.3
			c1.7-1.5,3.8-2.7,4.6-2.7c1.5,0,1.5,3.2-0.1,23c-0.2,3-0.7,9.5-1,14.5s-0.8,11-1,13.5c-0.2,2.5-0.7,9-1,14.5s-0.8,11.6-1,13.5
			c-0.2,1.9-0.7,8.5-1,14.5c-0.3,6-0.8,12.1-1,13.5c-0.2,1.4-0.7,7.9-1,14.5c-0.4,6.6-0.8,12.7-1,13.5s-0.6,7.1-1,14s-0.8,13.2-1,14
			s-0.6,7.1-1,14s-0.9,13.3-1.1,14.3c-0.2,1-0.4,4.7-0.5,8.2C1010,124.6,1009.1,126.5,1007.3,124.9z"/>
	</g>
	<g id="USA">
		<path id="US-AL" class="st0" d="M1249.7,638.7c-0.4-1.2-1.4-1.4-4.1-0.9l-3.5,0.7l0.6-37.9c0.3-20.8,0.8-39.9,1-42.4
			c0.2-2.5,0.8-8.3,1.2-13c0.4-4.7,0.9-9.3,1-10.2c0.2-0.9,0.6-5.6,1-10.4c0.4-4.8,0.8-9.4,0.9-10.3c0.2-1.1,1.4-1.6,4.1-1.7
			c2.1-0.1,13.2-0.4,24.6-0.8l20.7-0.6l1,3.7c0.5,2.1,1.5,6,2.1,8.7c0.6,2.8,2,7.7,3.1,11c1.8,5.6,3.1,12.8,4.4,24.3
			c0.3,2.6,1.9,7.3,3.5,10.5c3.1,6,3.2,6.6,2.8,22.8c-0.2,8.1,0.1,10.8,2.1,19.3c0.5,2.1,0.6,3.9,0.2,4.1s-6.7,0.4-14.1,0.5
			c-7.4,0.1-19.6,0.4-27,0.8c-11.9,0.5-13.7,0.8-15.2,2.6c-2.2,2.5-2.2,2.2,0.6,9.3c1.3,3.3,2.7,7.2,3,8.7l0.7,2.8h-7.1
			C1251.9,640.2,1250.1,639.9,1249.7,638.7z"/>
		<path id="US-AR" class="st0" d="M1117.1,556.3l-0.3-7.5l-3.2-0.9c-3.8-1.1-3.5,1.3-3.2-28.1c0.1-11,0.2-26.2,0.1-33.8l-0.1-13.8
			l44,0.4c24.2,0.2,44.3,0.7,44.6,1c0.3,0.3,0,2.7-0.7,5.2c-1.5,5.2-1.2,5.7,4.8,7.3c2.3,0.7,4.2,1.7,4.2,2.3c0,0.6-1.5,3.6-3.4,6.8
			c-1.8,3.1-3.9,7.9-4.5,10.7c-0.8,3.2-2.6,6.5-5.1,9.4c-2.8,3.2-4.1,5.8-4.6,9c-0.4,2.9-2,6.3-4.5,9.6c-5.5,7.2-7.1,12.5-7,22
			l0.1,8h-30.5h-30.5L1117.1,556.3z"/>
		<path id="US-AZ" class="st0" d="M764.8,561.2c-4.9-1.1-11.3-2.6-14.2-3.4c-2.8-0.8-6.9-1.5-9-1.5c-3.2,0-5-0.9-10.3-5.2
			c-3.6-2.9-7.4-6.1-8.5-7.1c-1.1-1-6.1-4.6-11-7.9c-10.8-7.3-26.6-19.3-31.5-23.7c-1.9-1.7-5.1-3.8-7-4.6c-3.7-1.5-9.5-7.8-8.6-9.3
			c0.3-0.5,3-1.9,6.1-3.1c5.1-2.1,5.5-2.5,5.5-5.5c0-2-0.8-3.9-2-5c-2.9-2.6-2.5-5,1.5-9.1c2-2,4.4-5.4,5.5-7.5
			c1.2-2.3,2.7-3.9,3.8-3.9c1,0,3-1.3,4.6-2.9l2.8-2.9l-2.3-4.4c-1.9-3.6-2.3-6-2.3-13.1c0-4.8,0.3-8.8,0.6-8.8c0.3,0,1-3.9,1.4-8.8
			c0.5-6.2,1.3-9.6,2.7-11.5c1.9-2.6,2.3-2.7,7.7-2.2l5.7,0.6l3.2-8.6c1.8-4.7,3.6-8.8,4-9c0.8-0.5,95.3,22.8,97,23.8
			c0.6,0.4,0.7,1.5,0.1,2.9c-0.5,1.3-1.1,3.6-1.4,5.2c-0.3,1.6-3.7,16.9-7.6,33.9c-3.9,17.1-7.3,31.9-7.5,33s-2.3,10.1-4.5,20
			c-2.3,9.9-5.8,25.5-7.8,34.7C777.3,565.7,779,564.2,764.8,561.2z"/>
		<g id="US-CA">
			<path class="st0" d="M658.2,495.2c-1.6-1-22.4-6.6-35.2-9.6c-8.9-2.1-9.7-3.3-10.2-16.4c-0.4-9.6-0.6-10.5-4.1-16.2
				c-2-3.3-5.4-7.2-7.5-8.7s-4.3-3.9-5-5.3s-2.8-4.1-4.9-5.8c-2.1-1.7-5.2-5.2-7-7.9c-3.6-5.2-8.5-9.2-11.6-9.2
				c-2.9,0-9-4.1-11.9-7.9c-2.8-3.8-2.7-8.1,0.2-11.3c2.2-2.5,1.9-6.5-1.7-18.8c-1.7-5.8-3-11.7-3-13.1c0-1.4-1.5-5-3.3-8
				c-3.8-6.3-3.8-6.5-1.2-10.4c2.8-4.2,2.6-12.5-0.4-16.6c-1.9-2.6-2.2-3.8-1.6-8c0.4-2.7,1.5-6,2.6-7.4c2.7-3.5,1.7-7.4-2.8-11.3
				c-3.3-2.8-3.8-3.8-3.9-8c-0.1-2.6-1.1-6.9-2.3-9.6c-1.2-2.7-2.7-7.4-3.3-10.5c-1.1-5.4-1-6.3,2.4-16.9l3.5-11.2l-2.5-6.2
				c-2.4-6.1-2.5-6.2-0.7-10.1c1-2.2,2.8-5.1,4.1-6.6c1.3-1.5,4.8-6.4,7.8-10.9c4.7-7,5.5-8.9,5.6-13.2c0.1-3.2,0.5-4.9,1.2-4.6
				c1.2,0.4,29.1,10.5,45.6,16.5c5.8,2.1,15.1,5.5,20.7,7.5c10.1,3.7,10.2,3.7,9.2,6.3c-0.6,1.4-3.2,8.7-5.8,16.1
				c-2.6,7.4-7.1,20-10,28c-2.8,8-6.1,17.1-7.2,20.3c-2,5.7-2,12.5,0,15.1c0.5,0.6,3.4,5.8,6.4,11.6c18.3,34.7,62.2,116.7,63,117.8
				c0.6,0.7,0.9,4.4,0.8,8.2c-0.2,5.3,0.3,7.8,1.9,11c2.4,4.8,2.1,5.7-2.3,6.8c-2.4,0.6-3.8,1.9-5.5,5.3c-1.3,2.4-3.9,6-5.8,8
				c-4,4.2-4.6,8.8-1.4,12.2c2.9,3.2,2.5,4-3.3,6.5C660.5,496.2,660,496.3,658.2,495.2z"/>
			<path class="st0" d="M588.6,464.9c-3.1-1.6-1.5-4.2,2.1-3.3c2.9,0.7,3.3,1.8,1.4,3.4C591.2,465.8,590.2,465.7,588.6,464.9z"/>
			<path class="st0" d="M591.6,451.7c-1.6-1.8-1.6-3.5,0-3.5c1.7,0,3.7,2,3.7,3.7C595.3,453.7,593.2,453.5,591.6,451.7z"/>
			<path class="st0" d="M570.3,428.4c-3.7-0.7-9-3.8-9-5.2c0-0.5,2.4-0.9,5.4-0.9c3.9,0,6.3,0.6,8.8,2.3c1.9,1.3,3.4,2.7,3.4,3.2
				C578.8,429,575,429.2,570.3,428.4z"/>
		</g>
		<path id="US-CO" class="st0" d="M943.3,438.6c-4.4-1.1-19.7-4.2-33.5-6.9c-1.1-0.2-4.2-0.8-7-1.4c-2.8-0.5-6.1-1.2-7.5-1.4
			c-2.4-0.4-16.2-3-51-9.7c-8.5-1.6-18.4-3.6-22-4.2c-4.6-0.9-6.4-1.7-6.3-2.7c0.1-0.8,3.6-17,7.9-35.9c4.2-19,7.9-35.4,8.1-36.5
			s1.7-7.6,3.2-14.5c2.4-10.9,3.1-12.5,4.7-12.3c1.1,0.1,6.4,1.1,11.8,2.3c5.4,1.2,10.9,2.3,12.3,2.5c1.3,0.2,3.2,0.7,4.1,1
			c1,0.3,2.9,0.7,4.2,1c3.6,0.6,14.9,3,36.5,7.7c10.4,2.3,20.8,4.3,23,4.5c2.2,0.2,5.3,0.6,7,0.9c1.7,0.3,4.6,0.8,6.5,1.1
			c18.2,2.9,23.5,4.1,23.3,5.5c-1.1,7.7-6.4,46.4-6.8,49.5c-0.3,2.2-0.7,5.1-0.9,6.5c-0.2,1.4-0.6,4.1-0.9,6c-0.3,1.9-1.4,10-2.5,18
			s-2.2,15.8-2.4,17.5c-0.3,2.5-0.8,3-3.3,3.1C950.1,439.8,946.4,439.3,943.3,438.6z"/>
		<path id="US-CT" class="st0" d="M1524.6,312c0.2-0.7-0.3-3.3-1.3-5.8c-0.9-2.5-1.5-5.4-1.4-6.5c0.2-1.1,0.4-3.4,0.5-5.1l0.2-3.1
			l11.1-2.3c6.1-1.3,11.6-2.4,12.2-2.5c0.9-0.2,5.3,14.6,5.3,17.9c0,0.3-2.6,1.3-5.8,2.2c-8.7,2.4-15.6,4.8-16.7,5.7
			C1527.4,313.7,1524.1,313.4,1524.6,312z"/>
		<path id="US-DC" class="st0" d="M1464.5,383.9c-0.9-1.1-0.8-1.7,0.2-2.5c1.1-0.9,1.7-0.8,2.5,0.2c0.9,1.1,0.8,1.7-0.2,2.5
			C1465.9,385,1465.3,384.9,1464.5,383.9z"/>
		<path id="US-DE" class="st0" d="M1491.5,382.5c-1.1-4.3-2.6-10.9-3.3-14.6c-1.1-5.8-1.1-7,0.2-7.7c2.5-1.6,2.9-1.1,2.9,2.9
			c0,7.6,0.9,9.5,5.9,12.5c4.5,2.7,10.1,10,10.1,13c0,0.9-2,1.4-6.9,1.5l-6.9,0.2L1491.5,382.5z"/>
		<path id="US-FL" class="st0" d="M1396,617.4c-0.6,0-1.2,0-1.8,0.1l-4.1,0.3l-0.3,5.3c-0.4,6.1-0.3,6.1-3.7,6.7
			c-1.9,0.3-2.9-0.2-4.1-2c-1.3-1.9-2.4-2.4-5.4-2.4c-2.1,0-15.3,0-29.4,0l-25.7-0.1l-0.7-3.1l-0.7-3.1l-26.1,0.7
			c-14.4,0.4-27.1,0.8-28.2,1s-2.3,0.4-2.8,0.5c-1.2,0.1-0.9,2.5,1.2,7.7c1.1,2.7,2.2,6.1,2.5,7.7c0.4,2,1.1,2.7,2.3,2.3
			c0.9-0.3,6.3-0.8,12-1.1l10.2-0.7l5.8,3.5c3.2,1.9,7.3,4,9.2,4.6c2.1,0.7,4.4,2.5,5.9,4.6c2.2,3.2,2.7,3.5,6,2.9
			c2-0.4,7.2-2.5,11.6-4.7c12.2-6.1,14.4-6.7,18-5c1.7,0.8,4.1,3,5.4,4.9c1.3,1.9,6.1,6.9,10.7,11c9.6,8.7,10.2,10,11,24.8
			c0.4,6.2,1.5,12.9,3,17.8c1.3,4.3,2.4,8.6,2.4,9.5c0,0.9,1.6,3,3.5,4.7c2.3,2,4.2,5.1,5.6,9c1.7,4.6,3.1,6.7,6,8.8
			c2.1,1.5,5.1,4.9,6.6,7.6c1.5,2.7,3.9,5.4,5.4,6c1.5,0.7,5.2,4.1,8.3,7.6c5.9,6.6,13.7,11.9,16.5,11.1c4-1.2,10.1-1.6,10.1-0.7
			c0,3.4-11,11.8-18.5,14.1c-2.2,0.7-4.4,1.7-5,2.3c-0.7,0.7-0.5,0.8,0.5,0.5c0.8-0.3,3.8-1.2,6.5-2.2c5.6-1.9,13.7-7.4,15.9-10.9
			c0.8-1.2,1.7-5.6,2.1-9.7c0.4-4.1,1.3-8.7,2.1-10.2c1.1-2.1,1.4-6.1,1.2-16.6c-0.3-13.2-0.4-14.1-3.3-19.8
			c-1.7-3.3-4.9-9.6-7.2-14.1s-4.6-10.3-5.2-13c-2.1-9.7-4.3-14.8-9.6-21.8c-8.3-10.9-19.6-35.4-19.6-42.3
			C1402.1,618.9,1400,617.4,1396,617.4z M1424.7,710.5c0.3,0,0.7,0.1,1,0.2c2.6,0.6,2.7,1,2.4,5.9c-0.3,5.7-1.5,6.6-5.8,4.4
			C1417.4,718.4,1419.7,710.3,1424.7,710.5z"/>
		<path id="US-GA" class="st0" d="M1384.3,624.5c-1.4-2.2-1.5-2.2-30.6-2.2h-29.2l-0.9-3.2c-0.5-1.8-1.4-3.1-2-3
			c-0.6,0.1-1.1,0.1-1.1-0.1s-0.7-4.2-1.6-8.8c-0.9-4.6-1.5-11.5-1.3-15.4c0.6-15.2,0.3-18.4-2.4-22.5c-2.4-3.7-3.9-9.9-5.3-22
			c-0.3-2.5-1.6-8.1-2.9-12.5c-3.8-13.1-5.7-21.4-5-22.5c0.3-0.6,1.6-0.9,2.8-0.9c2.1,0.1,15.1-0.8,22.7-1.7c1.9-0.2,7.4-0.7,12.2-1
			l8.7-0.6l-0.9,3c-0.7,2.5-0.5,3.4,1.8,5.5c1.5,1.4,3.6,2.8,4.8,3.1c1.2,0.4,4.7,3.8,7.9,7.6c3.1,3.8,8,8.8,10.8,11
			c6.1,4.8,15.5,16.4,19.1,23.7c1.4,2.9,3.4,5.4,4.3,5.7c1,0.3,2.6,2,3.6,3.8c2.6,4.5,6.7,8.8,8.4,8.8c0.9,0,1.2,0.6,0.8,1.8
			c-0.3,1-2.2,6.2-4.1,11.8c-2.4,7-3.5,11.8-3.5,15.8c0,4.2-0.3,5.6-1.2,5.1c-1.2-0.8-10.2-0.7-12.9,0.2c-1.3,0.4-1.5,1.3-0.9,4.3
			c0.4,2.1,0.4,4.7,0,5.7C1385.7,626.6,1385.6,626.6,1384.3,624.5z"/>
		<path id="US-IA" class="st0" d="M1171.8,363.2c-1.8-1.8-4.1-2-27.4-2.6c-14-0.4-28.2-0.8-31.5-0.9c-3.3-0.2-8.8-0.3-12.1-0.4
			l-6.1-0.1l-2-4.2c-1.1-2.3-2.3-7.2-2.6-10.8c-0.6-6.4-1.3-12.3-2.2-18.8c-0.2-1.8-1.5-5.5-2.9-8.1c-2.2-4.3-2.5-6.2-2.6-17.2
			c-0.1-6.8-0.1-13-0.1-13.7c0.1-1,10.1-1.2,48.3-1l48.2,0.3l0.8,3.5c0.4,1.9,1.1,6.2,1.4,9.5c0.7,6.6,3.2,11.2,6.8,12.1
			c1.2,0.3,2.8,1.8,3.4,3.3c0.6,1.5,2.1,3.9,3.4,5.4c3.8,4.6,2,16.1-2.9,18.6c-1,0.5-3.7,1.2-6,1.6c-4.2,0.7-4.3,0.8-4.3,4.9
			c-0.3,15.2-0.4,15.4-4.8,18.6C1173.7,365.1,1173.6,365.1,1171.8,363.2z"/>
		<path id="US-ID" class="st0" d="M797.8,272.6c-2.2-0.7-17.3-5.3-33.5-10.4c-16.2-5.1-33.8-10.5-39-12.1s-14.2-4.4-19.8-6.1
			c-12-3.6-11.5-1.4-4.9-19.8c2.5-6.9,4.8-14.8,5.2-17.5c0.5-3.7,1.5-5.8,3.7-8.2c2.9-3,3-3.4,2.4-9c-0.4-3.2-0.7-6.1-0.7-6.3
			c-0.2-2.1,0.6-3.2,3.4-4.7c3.5-1.8,8.7-7.2,8.7-9c0-0.6,1.8-2.9,4-5l3.9-3.9l-1.5-8c-2.4-13.1-1.7-21,2.8-33.8
			c2.2-6.1,6.8-19.5,10.4-29.6s6.6-18.7,6.9-18.9c0.7-0.7,12.5,3,12.5,3.9c0,0.4-1.1,5.2-2.5,10.6c-1.7,6.5-2.5,12.5-2.5,17.4
			c0,4.1,0.1,8.4,0.1,9.5s1.7,5.1,3.8,9c2.1,3.9,4.2,8.6,4.6,10.5c0.7,3.4,4.1,9.1,5.7,9.8c1.4,0.6,0.8,4.6-1.2,7.7
			c-1.1,1.7-2,4.4-2,6.2c0,2.3-0.6,3.4-2.1,3.8c-2.3,0.7-3.9,4.2-3.9,8.5c0,2.4,0.5,3,3.4,3.8c1.9,0.5,4.5,0.7,5.9,0.5
			c2.1-0.4,2.7,0,3.6,2.9c0.6,1.8,1.3,5.6,1.7,8.3c0.3,2.7,0.8,5.2,1,5.5c0.2,0.3,0.6,2.1,0.9,4.1c1.3,7.8,2.5,11.3,4.7,13.6
			c2,2.1,2.8,2.3,7.8,1.8c3.7-0.4,7.9,0,12.3,1.1c3.7,0.9,7.5,1.4,8.5,1.1c2.9-0.9,4.6,0.8,4,4c-0.3,1.6-2.6,11.6-5.2,22.4
			c-2.6,10.7-5.7,23.6-6.9,28.5l-2.2,9L797.8,272.6z"/>
		<path id="US-IL" class="st0" d="M1218.2,453.1c-0.4-11.3-1.1-12.5-11.4-19.9c-7-5.1-7.5-5.7-7-8.5c0.3-1.7,0.8-5.3,1.1-8.2
			c0.6-5.7-0.3-7.4-6.3-10.8c-3.1-1.8-5.3-5.1-5.3-7.9c0-0.7-2.8-4.4-6.2-8.1c-6.6-7.1-7.1-8-8-16l-0.6-5l4.8-3.7l4.8-3.7l0.1-8.8
			c0.1-4.8,0.3-8.9,0.4-9s1.5-0.5,2.9-0.7c7.7-1.4,11.7-6.7,12.4-16.1c0.3-4.3-0.1-5.6-2.6-9.2c-1.6-2.3-3-4.4-3-4.6
			c0-0.3,5.7-0.3,12.8-0.2c7,0.2,18.7,0.3,26,0.4l13.2,0.1v2.5c0,1.4,0.6,3.5,1.4,4.8c2.6,4.1,3.2,12,3.4,47.7
			c0.1,19.5,0.5,37.4,0.8,39.6c0.5,3.6,0,5-3.9,11.1c-3.9,6-4.5,7.8-5,14.1c-0.7,8.5-2.7,13.8-5.6,14.7c-1.2,0.4-2.6,1.5-3.1,2.6
			c-0.8,1.6-2.1,1.9-6.7,1.9c-3.8,0-6.2,0.5-7.5,1.7C1218.4,455.5,1218.3,455.4,1218.2,453.1z"/>
		<path id="US-IN" class="st0" d="M1246.6,430.5c0.3-2.1,2.3-6.6,4.5-10l4-6.3l-0.4-39.2c-0.2-21.6-0.5-40-0.8-41
			c-0.3-1.3,0.3-1.8,2.3-1.8c1.5,0,3.2-0.5,3.7-1c0.6-0.6,9.4-1.1,21.9-1.2c17.9-0.2,20.9,0,21.1,1.3c1.2,8.1,3.6,73.4,2.8,75.5
			c-0.3,0.8-1.7,1.5-3.2,1.5c-3.5,0-3.9,0.4-9.7,8c-6.7,8.9-7.3,9.4-10.8,9.5c-1.7,0.1-5.6,1.6-8.6,3.3c-4.9,2.9-6.3,3.2-12.5,3.1
			c-3.8-0.1-8.3,0.3-9.8,1C1246.6,434.9,1246,434.6,1246.6,430.5z"/>
		<path id="US-KS" class="st0" d="M1100,453.6c-0.1-0.1-4.7-0.5-10.2-0.9s-10.7-0.8-11.5-1s-5.8-0.7-11-1s-10.2-0.8-11-1
			c-0.8-0.2-6-0.6-11.5-1c-5.5-0.4-10.7-0.8-11.5-1s-5.8-0.6-11-1c-5.2-0.4-10.2-0.8-11-1c-0.8-0.2-5.8-0.6-11-1s-10.2-0.9-11-1
			c-0.8-0.2-6-0.6-11.5-1c-5.5-0.4-10.7-0.9-11.5-1c-0.8-0.2-3.1-0.3-5.1-0.4l-3.6-0.1l1.8-12.8c1-7,2-14.8,2.4-17.2
			c0.3-2.5,0.8-5.6,1-7c0.2-1.4,0.7-4.1,0.9-6s1-7.1,1.6-11.5c0.6-4.4,1.3-9.6,1.6-11.5c0.2-1.9,0.7-5.2,1-7.4l0.6-3.9l6.6,0.6
			c6.4,0.5,21.8,2.2,29.1,3.1c1.9,0.2,6.4,0.7,10,1.1c3.6,0.3,7.6,0.8,9,1c1.4,0.2,5.4,0.6,9,1s7.6,0.8,9,1c1.4,0.2,5.9,0.7,10,1
			s8.2,0.8,9,1s4.9,0.6,9,1s8.4,0.9,9.4,1.1c1,0.2,5.8,0.6,10.5,1c7.7,0.5,8.9,0.9,11.5,3.5c2.9,2.8,2.9,2.9,1.1,5.6
			c-1.5,2.3-1.6,3.3-0.6,6.6c0.6,2.1,1.8,3.9,2.6,3.9c0.8,0,1.9,0.8,2.4,1.8c1.7,3.2,2.3,30.6,1,43.9l-1.2,12.3l-2.9-0.2
			C1101.5,453.9,1100.1,453.7,1100,453.6z"/>
		<path id="US-KY" class="st0" d="M1221.5,463c0.1-2.9,0.7-5.9,1.2-6.5c0.6-0.8,3.3-1.2,6.8-1.2c4.2,0,6.1-0.4,6.5-1.5
			c0.3-0.8,2-2.3,3.8-3.4c2.6-1.5,3.6-3,4.6-7c1.2-4.8,1.5-5.1,5.9-6.5c2.5-0.8,7.8-1.4,11.8-1.4c6.4,0,7.8-0.3,12.3-3.1
			c3-1.8,6.4-3.1,8.3-3.1c3.5,0,7-3.1,13.7-12c1.9-2.5,3.5-4.7,3.7-4.9c0.2-0.2,2.2-0.7,4.6-1l4.2-0.6l0.3-4.8l0.3-4.8l3.4,0.5
			c1.9,0.3,5.2,1.8,7.4,3.4c4.6,3.3,11,4.6,22.1,4.3c6.6-0.2,7.8,0.1,9.5,1.9c1.3,1.4,1.8,3.2,1.6,5.6c-0.3,4,1.8,8.1,8.1,15.5
			l4.2,4.9l-2.4,1.7c-2.8,2-4,3.2-13.6,13.9c-6.2,6.9-7.6,8-10.5,8c-9.3,0.1-70,1.7-73.9,1.9c-2.5,0.1-7.8,0.3-11.8,0.3
			c-5.9,0.1-7.4,0.4-8,1.9c-0.8,2.1,0.1,1.9-13.5,2.7l-10.8,0.7L1221.5,463z"/>
		<path id="US-LA" class="st0" d="M1219.8,673.1c-1.7-0.5-5.1-1.9-7.8-3c-4.3-1.8-5.1-1.8-8-0.5c-3.6,1.6-6.2,2.3-12.7,3.1
			c-6.1,0.8-12.3-2-17.7-8.3c-2.3-2.7-6.3-5.9-8.8-7.1l-4.6-2.3l-2.2,2c-4.1,3.8-12.7,3.2-20.8-1.3c-3.3-1.8-17.9-2.1-19.6-0.3
			c-2.2,2.2-2.1,0.3,0.2-6.7c1.3-3.8,2.6-9,2.9-11.5c1.1-8,1.6-9.9,3.5-13.2c1.7-3,1.8-3.8,0.6-9.8c-0.7-3.6-2.5-9.2-4-12.5
			c-2.5-5.4-2.8-7.3-3.2-20.2l-0.4-14.2h30.6c23.8,0,30.6,0.3,30.6,1.2c0.2,4,1.1,8.6,2.1,11.1c1.6,3.8,0.1,8.6-6.8,21.5
			c-6.4,12.2-7.7,18.7-4.1,20.1c1.2,0.5,6.5,0.9,11.7,1.1c8.3,0.2,17.3,0.6,24.6,0.9c1.9,0.1,2.2,0.9,2.7,7.8
			c0.6,8.6,1.4,9.7,9.5,13.4c3.9,1.8,4.2,2.3,4.2,5.8c0,2.4-0.7,4.4-1.8,5.4c-3,2.7-2.6,6.3,0.8,7.7c3.3,1.4,8,6.4,8,8.6
			c0,0.8-0.9,1.4-1.9,1.4c-1.1,0-2.5,0.2-3.2,0.4S1221.5,673.6,1219.8,673.1z"/>
		<g id="US-MA">
			<path class="st0" d="M1575.5,296.5c0.2-1,1.2-1.8,2.3-1.8s2.1,0.8,2.3,1.8c0.3,1.3-0.3,1.8-2.3,1.8S1575.3,297.8,1575.5,296.5z"
				/>
			<path class="st0" d="M1586.5,294.6c-1.8-0.7,0.4-3.3,2.9-3.3c2.2,0,2.4,1.1,0.7,2.8C1588.9,295.3,1588.5,295.4,1586.5,294.6z"/>
			<path class="st0" d="M1564,288.2c-2.1-3.3-4.4-6-5-6.1s-1.9-0.2-2.8-0.4c-1.3-0.3-21.5,3.6-31.4,5.9c-1.9,0.5-2.1,0-2.3-5.2
				c-0.1-3.1-0.4-7-0.7-8.5c-0.5-2.6-0.4-2.8,3.3-2.8c2.1,0,5-0.3,6.3-0.5c1.4-0.2,7.2-1.2,12.9-2.1c9.9-1.6,10.5-1.8,13.9-5.5
				c2.7-3,4.2-3.9,6.7-3.9c4.8,0,5.7,1.7,4,7.4c-1.3,4.3-1.3,5,0.3,7.1c1,1.3,3.4,3.4,5.5,4.6c2.1,1.3,3.8,2.6,3.8,2.9
				c0,1.3,6,3.9,7.5,3.3c2-0.8,1.3-5.2-1.2-7.1c-1.5-1.1-1.4-1.2,0.5-1.2c1.2,0,3,1.3,4.3,3.1c2.2,3.1,2.2,3.1,0.3,5.7
				c-1.1,1.4-4.1,3.3-6.9,4.3c-2.7,0.9-6.3,2.4-8,3.3C1569.7,295.4,1568.2,294.7,1564,288.2z"/>
		</g>
		<path id="US-MD" class="st0" d="M1492.5,401.6c-0.8-1.8-1.7-2.4-3.1-2.1c-3.7,1-7.7-6.2-8-14.3c-0.1-1.9-0.4-5.2-0.7-7.3
			c-0.4-2.3-0.2-4.3,0.6-5.2c0.7-0.8,1-2.2,0.6-3c-0.8-2.2-4.2-0.3-6.2,3.6c-2.1,4.2-1.1,19.7,1.8,25.3l2,3.9l-2.3-0.7
			c-1.3-0.4-3.6-0.9-5.1-1.3c-3.8-0.8-7.8-4.8-7.8-7.6c0-1.3,1.5-4.1,3.4-6.3l3.4-3.9l-2.6-2.7l-2.6-2.7l-3,2.5
			c-3.2,2.7-6.4,2.6-8.2-0.3c-0.6-0.9-2.5-3.1-4.3-4.9c-2.8-2.8-4-3.3-8-3.3c-6.6,0-13.1,2.2-19.1,6.5c-2.8,2-5.4,3.5-5.7,3.2
			c-0.3-0.3-0.8-2.1-1.1-4c-0.6-3.5-0.6-3.5,3.8-4c2.4-0.3,12.5-2,22.4-3.7c18.6-3.3,18.9-3.3,26.5-4.6c2.5-0.4,5.4-0.9,6.5-1.1
			s3.4-0.6,5.1-0.9l3.1-0.5l1.7,9.3c1,5.1,2.7,12.1,3.8,15.5l2,6.2h7.9h7.9l-0.2,4.4c-0.1,2.4-0.5,4.6-0.7,4.9
			c-0.3,0.2-3.2,0.7-6.6,1C1493.9,404.2,1493.6,404.1,1492.5,401.6z"/>
		<path id="US-ME" class="st0" d="M1561.9,244.7c-3.4-4.4-10.7-27-13.2-40.5c-0.2-1.4-0.7-3.2-1-4.2c-0.3-0.9-0.1-1.9,0.5-2.3
			c1.6-1,5.3-11.7,5.8-16.6c0.2-2.5,0.9-7,1.4-10c0.5-3,1.2-8.2,1.6-11.4c0.3-3.2,1.8-9.5,3.2-14l2.6-8.1l6.8-0.7
			c3.7-0.4,7.3-1.1,8-1.6s2.2-0.8,3.4-0.7c1.2,0.1,2.9,0.2,3.7,0.3s3,1.5,4.9,3.1c2.8,2.4,3.4,3.7,3.4,6.8
			c-0.1,9.3,7.1,27.3,11.8,29.4c1.4,0.6,2.5,1.6,2.5,2.2c0,0.6,1.3,2.7,3,4.7c2.2,2.7,4.3,3.9,8,4.8c6.2,1.5,7.8,3.2,6.2,6.3
			c-2.8,5.2-7.8,9.7-12.2,11c-3.4,1-6.8,3.5-13.5,9.9c-4.9,4.7-11,10.1-13.5,12s-6.3,5.6-8.5,8.3s-5.7,6.9-7.9,9.4
			c-2.1,2.5-4,4.7-4.1,4.8S1563.4,246.7,1561.9,244.7z"/>
		<g id="US-MI">
			<path class="st0" d="M1268.3,326.2c0-0.6,0.7-1.8,1.5-2.6c0.8-0.8,1.5-2.6,1.5-3.9c0-1.3,1-5.4,2.1-9c1.8-5.3,1.9-7,1-9.1
				c-0.6-1.4-1.1-4.5-1.1-7c0-2.4-0.4-4.5-0.8-4.5c-0.5,0-1.9-2.3-3.2-5.2c-2.8-6-3-15.3-0.3-19.4c0.9-1.3,1.8-4.5,2-7.1
				c0.2-2.5,1.1-5.3,1.9-6.1c0.8-0.8,1.5-2.5,1.5-3.7c0-1.4,0.9-2.7,2.5-3.4c1.4-0.6,2.5-1.6,2.5-2.2c0-2.2,2-0.9,2.6,1.7
				c0.9,3.8,1.2,4.2,2.9,3.6c0.8-0.3,1.5-1.8,1.5-3.2c0-1.5,0.6-3.4,1.4-4.4c0.7-1,1.1-2.8,0.9-4.2c-0.4-1.9,0-2.5,1.9-2.7
				c2-0.3,2.4-0.9,2.5-4.3c0.3-9-0.1-8.4,4.5-7.8c2.6,0.3,4.4,0.1,4.8-0.6c0.5-0.8,2.1,0.2,4.9,2.8c2.3,2.2,5.9,4.5,8.1,5
				c6.9,1.9,9.6,5.8,10.6,15.5c1,9.5,0.8,11.2-1.6,14.6c-1.8,2.6-2.6,4.4-2.8,7.1c0,0.4-0.8,0.8-1.6,0.8c-1,0-1.5,1-1.5,3.4
				c0,1.9,0.7,3.9,1.5,4.6c1.8,1.5,2.5,1,10.2-6.4l5.2-5l3.4,3.7c3.3,3.6,5.5,8.8,6.4,15.1c0.2,1.7,0.8,4.1,1.2,5.5
				c1.4,4.3-1.3,11-6.4,16c-2.5,2.5-4.5,5.1-4.5,5.8c0,0.7-0.7,2.4-1.6,3.8c-0.9,1.3-1.6,4.5-1.7,7l-0.1,4.5l-5.6,0.1
				c-3.1,0-6.5,0.3-7.6,0.5c-1.8,0.4-15.4,0.5-21.5,0.2c-1.4-0.1-8.5,0.2-15.8,0.6C1271.9,327.2,1268.3,327.1,1268.3,326.2z"/>
			<path class="st0" d="M1245.4,230.2c-3.6-5.8-5.1-7.2-9.4-9.3c-6.8-3.2-18.4-7.2-27.1-9.4c-5.9-1.5-7.2-2.2-8.7-5
				c-1.8-3.2-1.8-3.3,0.2-5.2c1.1-1.1,2.9-2,4-2c3.7,0,12.4-3.2,15.8-5.9c8.3-6.4,17-11.3,18.5-10.4c0.5,0.3-0.1,1.2-1.2,2
				c-2.7,1.9-5.1,6.6-4.1,8.2c0.8,1.3,2.9,1.9,6.8,2c1.2,0,4.5,2.1,7.3,4.6c5.7,5.1,6.6,5.2,20.5,1.3c13.7-3.7,25.3-3.4,26.9,0.8
				c0.3,0.9,1.3,1.3,2.3,0.9c2.9-0.9,11.9,3.9,13.7,7.3c2,3.9,2,4.9-0.4,5.6c-4.4,1.4-7.1,1.7-17.1,2c-5.8,0.2-11.8,0.8-13.3,1.4
				c-1.5,0.6-4.7,1.1-7.1,1.1c-3.6,0-4.6,0.5-6.5,3c-1.3,1.8-3.1,3-4.5,3c-2.1,0-9.7,5.9-9.7,7.5c0,0.4-0.6,1.3-1.3,2
				C1249.9,236.8,1249,235.9,1245.4,230.2z"/>
		</g>
		<path id="US-MN" class="st0" d="M1084,275.3c0.5-13.8,1.4-28.8,2-34.4c0.4-4.3,0.1-7.6-1.2-11.8c-1.7-5.6-1.7-6,0-8.9
			c1.5-2.6,1.7-4.6,1.1-15.7c-0.4-7-0.8-14.7-1-17.2c-0.2-2.5-0.7-14.9-1-27.6l-0.7-23.1l6.9,0.4c21.9,1.2,22.5,1.2,23.9-0.3
			c0.8-0.8,1.5-2.3,1.5-3.4c0-2.2,0.4-2.3,3-0.9c1.3,0.7,2.1,2.7,2.6,6.7c0.8,6.7,2.5,8.8,7.9,9.8c2.2,0.4,4.7,1.3,5.6,2.1
			c1.1,0.9,4.5,1.5,10.8,1.6c9,0.2,9.4,0.3,12.9,3.5c2,1.8,4.3,3.3,5.2,3.3s3.5,1.4,6,3.1c4,2.7,5.2,3,11,2.9
			c6.6-0.2,19.1,1.3,22.3,2.6c1.6,0.7,1.5,0.9-0.8,3.1c-1.4,1.3-3.6,2.4-4.8,2.4c-4.1,0-10.3,3.7-12.6,7.3c-1.2,2-3.5,4.4-5.2,5.3
			c-1.6,1-2.9,2.1-2.9,2.5s-0.6,0.8-1.4,0.8c-0.8,0-2.1,1-2.9,2.3c-0.8,1.3-3.6,3.9-6.1,5.8c-5.2,4-5.6,4.7-6.3,11.4
			c-0.3,2.8-0.7,5.9-0.8,7c-0.2,1.1-0.4,2.2-0.4,2.5c0,0.3-1.7,1.4-3.7,2.4c-4,2.2-6.4,6-5.6,9c0.8,3.1,0.7,15.7-0.1,18.2
			c-0.6,1.7-0.2,2.8,1.5,4.5c6,5.8,20.2,18.4,22.2,19.7c2.1,1.3,4.5,6.1,4.5,9c0,1-9.6,1.2-46.8,0.9l-46.8-0.3L1084,275.3z"/>
		<path id="US-MO" class="st0" d="M1204.3,483c-1.4-0.6-2.6-1.2-2.8-1.3c-0.1-0.1,0.1-2.2,0.6-4.8c1.5-8,3.8-7.6-47.4-7.9l-44.9-0.3
			l-0.1-2.5c-0.7-11.9-0.3-20,1.3-27c0.6-2.6,0.5-23.5-0.1-32.5c-0.2-2.8-0.4-6-0.4-7.2s-1.7-3.8-3.7-5.8c-3.4-3.4-3.5-3.7-2.1-5.9
			c2.8-4.3,2.4-7-1.5-10.5c-2.4-2.1-4-4.6-4.7-7.5c-0.6-2.4-1.4-5.1-1.7-5.9c-0.5-1.3,0.4-1.5,5.7-1.2c3.5,0.2,19.6,0.6,35.8,1
			c16.2,0.4,30.3,1.1,31.2,1.6c0.9,0.5,1.6,1.7,1.6,2.7c-0.1,1.9,1,10.3,1.8,14.2c0.3,1.4,3.2,5.2,6.5,8.5c3.8,3.8,6.3,7.3,7,9.7
			c0.6,2.3,2.4,4.8,4.6,6.5c8.3,6.4,7.6,4.9,6.1,13.5c-0.7,4.3-1.1,8.1-0.8,8.6s4.1,3.4,8.3,6.6c4.3,3.2,8.2,6.5,8.6,7.4
			c0.5,0.9,1.2,4.3,1.6,7.6c0.8,6.6,1.1,7.5,2.9,7.5c0.8,0,1.1,1.4,0.9,4.2c-0.3,3.2-1.1,4.9-3.5,7.1c-2.4,2.2-3.4,4.1-4.2,8.5
			C1209.7,484.1,1208.6,485,1204.3,483z"/>
		<path id="US-MS" class="st0" d="M1216,639.8c-3.7-3.1-3.8-3.4-4.2-10.9c-0.2-4.2-0.6-8-0.9-8.5c-0.3-0.5-6.5-1-13.8-1.2
			c-7.3-0.2-15.1-0.5-17.3-0.6c-2.2-0.1-5-0.3-6.2-0.4c-3.6-0.2-2.9-5,2.3-14.3c2.5-4.5,5.7-11.3,7-15c2.3-6.3,2.3-6.9,0.9-9.7
			c-1.1-2.1-1.7-7.2-2.1-16.3c-0.7-15.7,0.3-19.8,6.4-27.9c2.5-3.3,4.4-7,4.7-9.4c0.8-4.9,1.5-6.2,5.2-9.7l2.9-2.8l21.7-0.6
			l21.7-0.6l0,2.8c0,1.6-0.4,6.7-0.9,11.3c-0.5,4.7-1.2,11.9-1.6,16c-0.3,4.1-0.8,8.6-1,10c-1,7.3-1.8,34.7-1.6,58.8l0.2,27.2
			l-2.3,0.1c-8.6,0.2-14.3,1.3-15.7,2.9C1219.9,642.9,1219.6,642.9,1216,639.8z"/>
		<path id="US-MT" class="st0" d="M944.3,222.8c-0.2-0.2-1.8-0.6-3.4-0.9c-3.2-0.6-19.9-4-51.5-10.7c-10.7-2.3-27.8-5.8-38-8
			s-20.5-4.3-23-4.9c-6.6-1.6-6.8-1.5-9,3.6c-2,4.7-2.1,4.7-6.5,4.6c-2.4-0.1-6-0.7-8-1.3c-2-0.6-7-1.2-11.1-1.3
			c-9.4-0.1-9.6-0.3-12.4-15.8c-2.8-15.2-4.1-20-5.4-20.1c-0.6,0-3.3,0-6,0.1c-4.9,0.2-4.9,0.2-4.2-2.6c0.6-2.6,3.1-5.3,4.8-5.4
			c0.4,0,0.8-1.6,0.8-3.6c0-2,0.9-4.8,2-6.3c3-4.3,2.9-9-0.3-12.5c-1.5-1.6-3.4-5.4-4.3-8.4c-0.9-3-2.9-7.7-4.5-10.3
			c-4.5-7.3-4.9-17.5-1.3-32.8l2.7-11.7l12.1,3.9c11.3,3.6,58.4,16.7,65.1,18.1c1.7,0.3,8.2,2,14.5,3.7c9.9,2.6,75,17.5,87.8,20.1
			c2.4,0.5,4.6,1,5,1.3c0.4,0.2,3.6,0.7,7.2,1.1c3.6,0.4,6.6,0.8,6.7,1c0.2,0.2-0.2,2.7-0.7,5.7c-1,5.8-1.6,9.1-2.6,15.3
			c-0.3,2.1-0.8,4.8-1,6c-0.4,2-0.8,4.1-1.9,11.1c-1.8,10.9-9.7,56.5-10.1,58.8C947.2,222.9,945.5,224.1,944.3,222.8z"/>
		<path id="US-NC" class="st0" d="M1456.3,521.7c-1.9-1.4-4.8-3.2-6.4-4c-1.7-0.8-7.5-5.1-12.9-9.4l-9.9-8l-11.3,0.4
			c-9.6,0.4-11.6,0.2-13.6-1.3c-3.8-2.9-5.8-3.3-16.9-3.1c-11.1,0.1-18.8,1.8-28.2,6c-5.2,2.3-6.2,2.5-20.2,3.5
			c-4.9,0.3-9.9,0.9-11,1.1c-1.8,0.4-1.8,0.3,0.3-1.3c1.3-1,4.2-3.7,6.5-6.1c2.3-2.4,6.5-5.5,9.2-6.9s7.2-4.5,10-6.9
			c2.8-2.4,8.6-6.1,13-8.3c8.2-4,12.7-7.8,14-11.8c1-3.2,2.9-3.9,12.9-4.7c4.9-0.4,9.8-0.9,11-1c1.2-0.2,4.8-0.6,8-1
			c3.2-0.4,6.8-0.8,8-1s10.7-1.5,21.1-2.9c10.4-1.4,19.9-2.7,21-2.9c1.1-0.2,4.1-0.7,6.6-1c7.1-1,20.7-3.5,27.5-5.1
			c1.7-0.4,2.4,0.2,3.4,2.6c1.2,2.9,1.1,3.2-1.4,5.4l-2.7,2.3l4.9,0.7c3.7,0.5,5.6,1.4,7.5,3.6c3.4,3.8,3.3,5.1-0.9,9.6
			c-1.9,2.1-3.8,4.6-4.1,5.6c-0.5,1.5-4.9,2.4-9.5,1.9c-0.3,0-0.5,1.9-0.5,4.4l0.1,4.4l3.8,0c4.3,0,4.6,0.9,1.5,4.6
			c-4.5,5.3-6.1,6.4-9.6,6.4c-3.1,0-4.5,1-11.3,8.1c-6.8,7.1-7.8,8.6-7.8,11.8c0,3.3-0.4,3.8-4,5.4c-2.2,1-4.1,1.7-4.3,1.7
			S1458.2,523.1,1456.3,521.7z"/>
		<path id="US-ND" class="st0" d="M1076.1,215.7c-0.1-0.1-3-0.5-6.3-0.9c-3.3-0.4-7.1-0.8-8.5-1.1c-1.4-0.2-4.5-0.7-7-1
			c-2.5-0.3-6.1-0.8-8-1c-5.6-0.7-10.1-1.3-16-2c-3-0.4-6.6-0.8-8-1.1c-1.4-0.2-11.5-1.5-22.5-2.9c-11-1.4-21.3-2.7-23-3
			c-4.2-0.7-9-1.3-16.1-2.1l-6.1-0.7l2.7-16.1c1.5-8.9,3-17.6,3.3-19.4c0.3-1.8,0.8-4.5,1-6c0.2-1.5,1.6-9.6,3-17.9
			c1.4-8.3,2.5-15.5,2.5-15.9c0-0.6,12.9,0,17.7,0.9c1,0.2,4.9,0.6,8.8,1c3.8,0.4,8.1,0.8,9.5,1c1.4,0.2,5.2,0.6,8.5,1
			c3.3,0.3,7.6,0.8,9.5,1.1c6.2,0.8,29.4,3.5,34.5,4c2.8,0.3,6.6,0.7,8.5,0.9s6,0.7,9,1.1s5.8,1.1,6.1,1.6c0.3,0.5,0.7,8.2,0.8,17.2
			c0.1,8.9,0.4,17.8,0.6,19.7c0.3,3,1.5,27.7,1.9,38c0.1,3.3-0.1,3.5-3.1,3.6C1077.8,215.9,1076.3,215.8,1076.1,215.7z"/>
		<path id="US-NE" class="st0" d="M1085.8,373.1c-3.8-0.4-9.7-1-13-1.3s-12.1-1.3-19.5-2.1c-7.4-0.8-15.8-1.7-18.5-2
			s-6.6-0.7-8.5-0.9c-4.5-0.6-9.9-1.2-23-2.5c-5.8-0.6-11.6-1.3-13-1.5c-2.1-0.3-16.5-1.8-19.5-2c-1.4-0.1-1-8.3,1.1-21
			c0.8-5.1,2.3-4.7-31.6-10.1c-1.4-0.2-3.6-0.6-5.1-0.9l-2.6-0.5l4-23.7c2.2-13,4.1-23.9,4.3-24.1c0.2-0.3,23.4,2.5,36.9,4.4
			c1.7,0.2,8.8,1.1,16,2s14.1,1.8,15.5,2c1.4,0.2,4.9,0.7,7.9,1c3,0.4,6.1,0.8,7,1c0.9,0.2,4.5,0.6,8.1,1c9.8,1,13.3,2.2,16.5,5.6
			c2.9,3,3.1,3.1,9.8,2.5c5.7-0.5,7.5-0.3,11,1.6c2.3,1.2,5.3,2.4,6.7,2.8c2.1,0.6,2.5,1.3,2.6,4.7c0.1,2.2,1.3,6.3,2.7,9.1
			c1.4,2.9,2.9,7.9,3.3,11.4c0.4,3.5,0.8,7,1,7.8c0.2,0.8,0.6,4.7,1,8.5c0.5,4.4,1.7,8.9,3.3,12c1.9,3.8,6,14.5,6.1,16.2
			C1096.3,374.1,1096.3,374.1,1085.8,373.1z"/>
		<path id="US-NH" class="st0" d="M1537.6,265.5c-1.2-0.2-2.3-0.7-2.3-1.1c0-0.4-0.3-8.7-0.6-18.5l-0.5-17.8l3.6-4
			c2.6-2.8,3.4-4.6,3.1-6.2c-2.4-10.8-2.4-11-0.4-13.9c3.1-4.3,4.3-3.8,5.2,2.2c0.7,4.1,3.4,13.9,7.3,26.6c2.6,8.3,6.8,15.7,10,17.7
			c0.7,0.4,1.3,2,1.3,3.4c0,1.9-0.4,2.4-1.6,1.9c-1.1-0.4-3.1,0.9-6.1,3.8c-3.6,3.6-5.5,4.6-9.2,5.1c-2.5,0.3-5.3,0.7-6.1,0.9
			S1538.8,265.8,1537.6,265.5z"/>
		<path id="US-NJ" class="st0" d="M1501.5,374.1c-5.5-2.7-7.2-5.4-7.1-11c0.1-2.4,0-4.9-0.2-5.5c-0.2-0.6,2-3.6,4.9-6.7
			c2.9-3,5.2-6,5.2-6.5c0-0.5-1.8-2.4-4-4.2c-5-3.9-6.5-6.6-5-8.5c1.1-1.4,1.4-2.6,2.4-10.5c0.3-2.4,0.9-4.8,1.4-5.3
			c1.2-1.2,15.4,3.9,17.4,6.3c1.2,1.5,1.5,2.7,0.8,4.3c-1,2.6,0,8.5,2.3,13.9c0.9,2.1,1.4,5,1.2,6.5c-0.2,1.5-0.6,4.1-0.9,5.7
			c-0.7,5-8.3,20-11,21.8C1505.9,376.6,1506.7,376.7,1501.5,374.1z"/>
		<path id="US-NM" class="st0" d="M903.8,566.2c-5.5-1-11.6-2.1-13.5-2.4c-5.2-0.8-26-4.5-30-5.2c-1.9-0.4-8-0.7-13.5-0.7l-10,0
			l-0.3,2.8c-0.4,3.2-1.3,3.3-8.5,1.3c-2.8-0.8-8.1-1.7-11.7-2c-3.6-0.3-7.5-0.9-8.8-1.2c-4.4-1.1-7.1,0.4-8.4,4.7
			c-1.2,3.9-1.3,4-5.7,4c-5.7,0-12.2-1.9-12.2-3.6c0-1.3,6.7-31.6,12.2-54.9c1.7-7.2,3.2-14.1,3.5-15.4c0.2-1.3,1.1-5.3,2-9
			c0.9-3.7,1.7-7.5,2-8.6c0.2-1.1,3.3-14.6,6.8-30l6.4-28l2.9,0.1c1.6,0,4.5,0.4,6.4,0.7c11.7,2.1,56.8,10.8,58,11.2
			c0.8,0.2,3.1,0.7,5,0.9c4.6,0.7,39.2,7.3,45.3,8.7c4.6,1,4.8,1.2,4.3,4.2c-0.3,1.7-0.7,4.3-0.9,5.6c-0.2,1.4-0.7,4.1-1,6
			c-0.9,5.3-1.5,8.8-2.6,16c-1.3,7.9-1.7,10.6-2.4,14.5c-0.3,1.7-3.2,19.4-6.5,39.5c-7.5,45.6-7,43-7.8,42.8
			C914.2,568.1,909.3,567.2,903.8,566.2z"/>
		<path id="US-NV" class="st0" d="M681.5,425c-1.8-3.4-5.4-10.3-8-15.2s-8.1-15.3-12.1-23c-4-7.7-7.7-14.4-8.1-15
			c-0.4-0.6-3.5-6.4-7-13c-3.4-6.6-7.6-14.5-9.3-17.5c-1.6-3-5-9.3-7.5-14c-2.5-4.7-6.3-11.9-8.5-16c-6.8-12.7-7.2-9.8,6.8-49.4
			c6.8-19.3,12.8-35.4,13.3-35.9c0.9-0.9,9.9,2,37.6,12.3c7.7,2.9,21.2,7.4,30,10.2s20.9,6.5,26.9,8.4c6,1.9,11,3.5,11.2,3.7
			c0.3,0.3-32.7,114.8-35.5,123.3c-0.5,1.7-1.2,4.1-1.4,5.5s-1.7,5.9-3.3,10c-3.1,8-2.7,7.7-9.9,6.7c-5.7-0.8-10.2,7.5-10.4,18.8
			C686.3,431.6,685,431.7,681.5,425z"/>
		<path id="US-NY" class="st0" d="M1521,329.9c-0.2-0.6-0.2-2.5,0.1-4.2c0.8-4.9-2.7-7.7-14-11.4c-10.1-3.3-11.1-4-19.6-13.9
			l-3.8-4.4l-16.9,2.6c-9.3,1.4-18.1,2.8-19.4,3.1c-1.4,0.2-11.5,1.8-22.5,3.5s-20.7,3.3-21.6,3.6c-1.1,0.3-1.8-0.3-2.2-1.7
			c-0.6-2.2,2.3-6.2,11.1-15.5c1.8-1.9,3.2-3.9,3.2-4.5c0-0.5-1.1-3.2-2.5-5.9c-3-5.8-3.1-7-0.8-7c1,0,2.6-0.6,3.6-1.4
			c1.3-1,5.7-1.4,15.8-1.5c15.2-0.2,16.9-0.5,21.7-4.6c5.1-4.3,6.4-8.4,4.7-15.4l-1.4-5.8l5.8-6.8c3.2-3.7,6.8-8.2,8-9.9
			s4.6-5,7.5-7.4l5.3-4.2l8.3,0.2c4.6,0.1,9.3-0.1,10.5-0.5c1.8-0.6,2.3-0.2,3.2,2.6c1.6,5.1,2.3,9.7,2.5,17.4
			c0.2,6,0.6,7.5,2.8,10.2c5.1,6,9.4,28.4,8.6,44.5c-0.3,7.1-0.1,11.7,0.9,14.8c0.7,2.5,1.4,5.7,1.4,7.2c0,1.5,0.4,2.8,1,2.8
			c0.6,0,0.6,0.9,0,2.5c-0.6,1.6-0.6,2.7,0,3.1c0.5,0.3,1,0.2,1-0.3c0-1.3,4.8-3.4,9-3.9c1.9-0.3,4.8-1.5,6.5-2.7
			c4.4-3.3,9.7-4.9,10.6-3.3c0.5,0.8-0.2,2.2-1.9,3.7c-1.5,1.3-4.3,3.9-6.3,5.8C1537.2,324.8,1521.7,331.7,1521,329.9z"/>
		<path id="US-OH" class="st0" d="M1352.9,407.8c-1.9-2.2-2.4-2.3-10.1-1.8c-10.1,0.7-18-0.9-21.6-4.4c-1.8-1.7-4.2-2.7-7.3-3.1
			c-4.5-0.5-4.6-0.6-4.6-4.1c0-2-0.2-7.2-0.5-11.6s-0.6-13.5-0.9-20.2s-0.8-16.7-1.1-22.2c-0.5-8.1-0.3-10.1,0.8-10.2
			c0.7-0.1,2.5-0.2,3.9-0.4c1.4-0.1,7-0.6,12.5-1c5.5-0.4,10.2-0.8,10.5-0.8s3.2,1.2,6.4,2.7c6.3,3,11.8,3.5,14.5,1.2
			c0.9-0.7,3.7-2.1,6.2-3c2.5-0.9,5.4-2.5,6.5-3.4c6.5-5.9,16.3-12.1,16.5-10.5c1.7,15.7,1.5,38.8-0.5,54.3
			c-0.1,0.8-1.1,3.9-2.1,6.8c-1.6,4.3-2.7,5.8-6.2,7.8c-4.9,2.9-7.7,6.4-8.7,11c-0.5,2.5-1.3,3.3-3.6,3.8c-2.1,0.5-3.1,1.4-3.5,3.3
			c-0.7,3.5-2.7,7.4-4,7.8C1355.3,410,1354,409.1,1352.9,407.8z"/>
		<path id="US-OK" class="st0" d="M1098.8,540.1c-4.3-2.3-8.4-3.8-10.5-3.8c-1.9,0-10.6,0.3-19.4,0.6c-13.5,0.5-16.7,0.3-20.5-1.1
			c-2.5-0.9-6.1-1.9-8-2.2c-2.1-0.3-5.2-2.1-7.8-4.3c-3.3-2.9-5.5-4-9-4.4c-9.4-1.1-13.6-2.6-16.3-5.5c-1.6-1.7-5-3.6-8.3-4.7
			l-5.7-1.8l0.6-5c0.3-2.8,0.8-8.2,1.1-12c0.3-3.8,0.8-8.6,1-10.5c0.2-1.9,0.7-7.1,1-11.5s0.8-9.2,1.1-10.7c0.6-3-0.1-3.6-4.7-4.3
			c-5.4-0.8-33.6-4.5-43.4-5.7c-12.5-1.5-11.9-1.1-11.1-6.6c0.4-2.6,0.8-4.8,0.9-4.9c0.1-0.1,3.4,0.3,7.2,1.1c3.8,0.7,10.6,1.6,15,2
			s10,0.8,12.5,1.1c2.5,0.2,7.4,0.7,11,1c3.6,0.3,8.5,0.8,11,1s7.4,0.7,11,1s8.5,0.8,11,1s7.9,0.7,12,1s9.1,0.8,11,1s6.9,0.7,11,1
			s9.1,0.8,11,1s7.3,0.7,12,1c4.7,0.3,9.6,0.8,11,1s6.3,0.7,11,1c4.7,0.4,8.6,0.7,8.6,0.8c0.5,0.6,1.5,29.7,1.4,40.6
			c-0.3,26.6-0.7,45.1-1.1,45.4C1106,543.8,1102.7,542.2,1098.8,540.1z"/>
		<path id="US-OR" class="st0" d="M664.8,229.7c-14.3-5.2-30.7-11.2-36.5-13.4c-15.9-5.9-55.3-20.2-63-22.8
			c-2.5-0.8-4.7-1.7-4.8-1.8s0.1-1.8,0.7-3.6c0.6-1.8,1.3-5.2,1.5-7.4c1.1-9.7,3.4-14.7,10.4-22.4c3.8-4.1,8.7-10.7,11-14.5
			c4.8-7.9,24.1-46.9,24.1-48.6c0-0.7,0.7-0.8,1.8-0.4c1,0.4,3.2,1.1,4.9,1.6c3.1,0.9,8.2,5.8,8.5,8.2c0.1,0.6,0.3,1.6,0.4,2.2
			c0.1,0.6,0.3,2.6,0.3,4.6c0.2,5.1,2.8,7.4,10.3,8.9c3.5,0.7,10.2,3,14.9,5c4.7,2.1,10.5,4.1,13,4.5s5.2,0.9,6,1
			c0.8,0.1,6,0.6,11.4,1c11.4,0.8,14.4,1.6,32,7.9c7.1,2.5,13,4.6,13.1,4.6c0.1,0,0.2,0.6,0.3,1.2c0.1,0.7,0.7,4.1,1.3,7.5l1.2,6.2
			l-3.6,4c-2,2.2-3.6,4.4-3.6,4.9c0,1.6-5.4,6.9-8.6,8.5c-3.7,1.9-4.6,4.5-3.6,11.2c1,6.8,1,6.7-2.2,9.8c-2.2,2.1-3,3.8-3.3,7.4
			c-0.4,4.5-10.2,34.3-11.3,34.2C691.1,239.2,679.1,234.9,664.8,229.7z"/>
		<path id="US-PA" class="st0" d="M1394.5,370.6c-0.5-1-1.5-5.2-2.3-9.3c-1.5-8.4-1.6-8.9-1.9-9.2c-0.5-0.4-0.7-4-1.5-18.2
			c-0.4-7.7-0.8-15.6-1-17.5c-0.2-2.9,0.2-3.8,2.3-5.2c1.4-0.9,3.6-2.4,4.9-3.3c2.2-1.6,2.3-1.6,2.9,1.6l0.6,3.2l5.5-0.7
			c3-0.4,6.4-0.8,7.6-1.1c1.2-0.2,5.1-0.8,8.6-1.4c3.6-0.6,8.3-1.3,10.5-1.7c2.2-0.4,14.7-2.3,27.8-4.4l23.8-3.7l3.5,3.8
			c1.9,2.1,3.5,4.3,3.5,4.8s1.6,2,3.5,3.3c1.9,1.3,3.3,2.6,3.1,2.8c-0.5,0.5-1.3,4.4-2.2,11.2c-0.4,2.6-1,5-1.5,5.3
			c-2.3,1.4-0.7,5.9,3.6,9.8l4.5,4.1l-6,6.1c-3.3,3.4-7.2,6.6-8.7,7.2s-8.6,2-15.7,3.2c-7.2,1.2-13.9,2.3-15,2.5s-10.1,1.7-20,3.4
			c-23.4,4-21.8,3.8-31.2,4.5C1396.4,372.3,1395.4,372.2,1394.5,370.6z"/>
		<path id="US-RI" class="st0" d="M1553,296.5c-1-3.7-2-7.8-2.3-9c-0.5-2.1-0.3-2.2,3.4-2.2c3.7,0,4.2,0.4,7.3,5.1
			c2.5,3.9,3,5.5,2.3,6.8c-1,1.6-7.1,6.1-8.3,6.1C1555.1,303.2,1554,300.2,1553,296.5z"/>
		<path id="US-SC" class="st0" d="M1408.2,576.7c-1.4-0.7-3.6-3.4-5-5.9c-1.3-2.5-2.7-4.6-3-4.6c-1.4,0-5.9-5.4-5.9-7.1
			c0-1-1.7-3.8-3.8-6.3s-5.1-6.3-6.7-8.4c-1.6-2.1-5.5-5.8-8.5-8.2c-3-2.4-7.8-7.2-10.5-10.8c-2.8-3.5-6.6-7.2-8.6-8.2
			c-4.7-2.4-6-4.1-5.3-6.8c0.6-2.4,5.4-4.9,16.9-8.7c12.1-4,33.4-3,33.4,1.6c0,0.7,4.2,1,12.4,0.8c9.7-0.2,12.8,0,14.2,1.2
			c1,0.8,2.5,2,3.4,2.6s4.2,3.4,7.5,6.1c3.3,2.7,8,5.9,10.5,7.2c2.5,1.2,4.7,2.4,4.9,2.6c0.2,0.2-1.4,2.5-3.6,5.1
			c-4.9,5.8-5.9,7.6-6.8,12.8c-0.5,2.7-1.9,5.1-4.4,7.5c-2,1.9-5.5,5.7-7.7,8.3c-2.2,2.6-7.8,8.3-12.5,12.6
			C1411.1,577.7,1410.6,578,1408.2,576.7z"/>
		<path id="US-SD" class="st0" d="M1070.9,298.6c-4.1-2.1-5.9-2.5-11-2.1c-5.7,0.4-6.4,0.2-10.2-2.9c-4.2-3.4-7.4-4.2-22.4-5.9
			c-3-0.3-6.2-0.8-7-1s-4.2-0.7-7.5-1c-3.3-0.3-7.1-0.8-8.5-1s-4.5-0.6-7-0.9s-6.3-0.8-8.5-1.1c-2.2-0.3-8.9-1.2-15-2
			s-13.7-1.8-17-2.2c-13.8-1.6-15-1.9-14.8-4c0.2-2,5.9-36,6.8-40.4c0.3-1.4,0.7-4.1,1-6c0.3-1.9,1.3-8.3,2.3-14
			c1.7-10,1.9-10.5,4.2-10.4c2.7,0.1,15,1.4,17.8,1.9c2.5,0.4,10,1.4,15.7,2.1c2.8,0.3,6.1,0.8,7.5,1s5.2,0.7,8.5,1s6.7,0.8,7.5,1
			c0.8,0.2,7.3,1.1,14.5,2c13.2,1.6,39.5,5.1,45,5.9c1.7,0.2,4.3,0.5,5.8,0.5c2.4,0.1,2.7,0.3,1.8,2c-0.8,1.4-0.5,3.6,1,8.2
			c1.3,4.2,1.8,7.7,1.5,10.3c-0.9,6.4-1.5,15.1-2,28.9c-0.3,7.1-0.9,13.2-1.4,13.5s-0.9,4.8-0.8,9.8
			C1078.9,302.6,1078.8,302.7,1070.9,298.6z"/>
		<path id="US-TN" class="st0" d="M1202.3,508.9c0-2.8,2.2-8.6,4.8-12.7c3.6-5.7,6.2-12.2,6.9-17.4c0.6-4.7,2.4-7,5.6-7.2
			c1.2-0.1,7.9-0.5,14.8-0.9c10.4-0.6,12.7-1,14-2.6c1.4-1.7,3.8-1.9,26.5-2.5c66.5-1.6,81.5-2.1,94.8-3.2c3.7-0.3,6.8-0.3,6.8,0.1
			c0,1.4-2.4,5-4.4,6.7c-1.2,1-5.4,3.3-9.4,5.2c-4,1.9-9.8,5.7-13,8.4c-3.2,2.7-7.8,5.9-10.3,6.9s-5.9,3.6-7.5,5.6s-5.2,5.1-8,6.8
			c-2.8,1.8-5.2,3.5-5.5,3.9c-1.1,1.4-12.3,1.9-59,2.4c-26.7,0.3-50.4,0.8-52.8,1C1203.7,510,1202.3,509.8,1202.3,508.9z"/>
		<path id="US-TX" class="st0" d="M1025.4,751.2c-4.5-3.3-6.2-4-10.3-4c-3.8,0-6-0.7-10.1-3.4c-2.9-1.9-7-4-9.2-4.7s-4.6-2.1-5.3-3
			c-0.7-0.9-1.9-2.3-2.7-3.1c-1.3-1.3-3.3-9-2.5-9.3c0.2-0.1-0.8-1.3-2.3-2.6c-2.3-2.2-2.8-3.5-3.3-10.8c-0.6-7.4-1.1-9.2-4.8-15.4
			c-6.6-11.1-13.4-25.2-14.2-29.2c-1-5.4-6.1-14.9-9.6-18.1c-1.7-1.5-3.9-4.4-5-6.4c-1.5-3-2.6-3.8-5.6-4.3
			c-2.1-0.4-6.2-1.2-9.3-1.9c-8.3-1.8-14.7-0.2-17.1,4.4c-1,1.9-1.9,4-1.9,4.7s-1.5,2.8-3.4,4.8c-2.6,2.8-4.1,3.6-6.8,3.5
			c-4.8-0.1-5.8-0.7-13.4-7.4c-10.1-9-15.3-16.1-15.6-21.6c-0.1-2.4-1.1-6.6-2.1-9.2c-1-2.6-1.8-6.1-1.8-7.7c0-3-2.7-6.6-11.5-15.5
			c-2.2-2.2-4.8-5.7-5.8-7.8s-2.6-4.2-3.6-4.7c-1-0.5-2.4-2.5-3-4.2c-0.6-1.8-2.3-4.4-3.6-5.8c-1.6-1.7-2.4-3.4-2.1-5
			c0.3-2.3,0.8-2.4,6.5-2.5c3.4,0,10.8,0.8,16.4,1.7c10.9,1.9,14.6,2.5,20.5,3.4c2.1,0.3,5.6,1,7.8,1.4c2.2,0.5,6.2,1.2,9,1.5
			s5.3,0.8,5.6,1c1.4,0.9,12.9,1.6,12.9,0.8c0-0.5,0.7-4.7,1.5-9.4c0.8-4.7,1.7-9.8,1.9-11.5c0.2-1.7,2.5-15.6,5-31
			c2.5-15.4,4.8-29.5,5.1-31.4s0.7-4.3,0.9-5.5c0.2-1.1,0.6-3.7,0.9-5.7s0.7-4.7,1-6s0.7-4.2,1.1-6.5s0.8-4.7,0.9-5.5
			c0.2-0.8,0.4-2,0.4-2.6c0.1-0.8,2.6-0.7,8.6,0.2c4.7,0.7,11.3,1.5,14.8,1.9c3.4,0.4,6.9,0.8,7.7,1c0.8,0.2,4,0.7,7,1
			c3,0.3,8.2,1,11.5,1.5s6.4,0.9,6.9,0.9c0.5,0,0.6,3.5,0.2,7.8c-1.3,16.4-3.6,40.8-4,42.5c-0.5,2.2,0.8,3.2,7.4,5.3
			c3.3,1.1,6.4,2.8,7.7,4.5c2.3,2.9,8.1,4.9,16.1,5.6c4.8,0.4,10,3.2,11.9,6.4c0.8,1.3,2.3,2.1,4,2.1c1.5,0,5.2,0.9,8.2,2.1
			c5,1.9,7.2,2.1,26,1.8c22.5-0.3,21.9-0.4,31.8,6.4c2.4,1.6,5.9,3.4,7.8,3.9l3.4,0.9v21.8V595l2.9,6.4c1.6,3.5,3.4,9.1,4.1,12.5
			c1.1,5.5,1,6.5-0.8,10c-1.1,2.1-2.3,6.8-2.7,10.4s-1.5,8.7-2.5,11.5c-1,2.8-2.1,6.5-2.5,8.3c-0.5,2.5-1.2,3.2-3,3.2
			c-3.9,0-9.3,2.8-13.1,6.9c-3.9,4.2-14.2,10.4-26.5,16.1c-6.7,3.1-12.6,6.4-14,8c-0.3,0.3-2.8,2.3-5.5,4.5
			c-6.3,4.9-9.4,8.3-15.2,16.8c-4.5,6.5-4.6,6.9-4.4,13.5c0.1,3.7,0.6,8.1,1.1,9.8c1.1,3.4,2,19.3,1.3,21.2
			C1032.8,756,1031.2,755.4,1025.4,751.2z"/>
		<path id="US-UT" class="st0" d="M751.3,261.9c-0.8,0-1.1,0.4-1.3,1.2c-0.3,0.9-2.5,8.6-5,17.2c-2.5,8.5-6.2,21.1-8.2,28
			c-2,6.9-5.2,17.9-7.1,24.5s-5.1,17.4-7,24s-3.9,13.3-4.4,15c-0.5,1.7-1.7,6.2-2.8,10c-1.1,3.8-1.9,7-1.8,7.1
			c0.1,0.1,21.8,5.5,48.2,12.2c47.2,11.8,50.5,12.6,50.5,11.9c0-0.2,3.2-14.5,7.1-31.8c3.9-17.3,7.3-32.5,7.6-33.9
			c0.3-1.4,1.8-8.5,3.5-15.8c1.7-7.3,3.2-14.5,3.5-15.9s0.7-2.9,0.9-3.3c0.2-0.4-1.5-1-3.8-1.4c-8.2-1.4-34.6-7.3-35.8-8
			c-0.6-0.4-0.9-1.4-0.6-2.2c0.8-2.2,5.8-20.7,6-22.2c0.1-1.1-16.7-6.9-47.6-16.2C752.3,262,751.7,261.9,751.3,261.9z M763.7,275.5
			c0.3,0,0.8,0.1,1.4,0.2c3.6,0.9,7.2,5.5,7.2,9.3c0,3.5,1.9,4.3,4,1.8c1.6-2,4-0.2,3.3,2.5c-0.3,1.1,0,3.4,0.6,5.1
			c1.2,3.5,0.2,5.5-3.4,6.8c-5.6,2.1-6.1,2-8.7-0.7c-5.2-5.5-6.8-10.3-6.1-18.2C762.5,277,762.6,275.6,763.7,275.5z"/>
		<g id="US-VA">
			<path class="st0" d="M1354.3,452.9c8.1-9.7,13.2-13.9,15.5-13.1c0.9,0.3,1.6,1,1.6,1.4s1.6,1.1,3.5,1.4c2.6,0.5,6.3-0.3,14.6-3
				c10-3.3,11.3-4,12.4-6.8c0.7-1.7,2.2-4.2,3.2-5.6c1.1-1.4,3.4-6.3,5.2-11s3.6-8.8,3.9-9.2s2.4-0.9,4.6-1.3c6.7-1,7.2-1.4,7.9-5.8
				c0.5-3.4,1.7-5.1,6.1-9c3-2.7,5.4-5.2,5.3-5.5c-0.4-2.6,0.3-3.1,2.7-2.2c4.1,1.5,7.3,1.2,8.4-1c1.1-2,1.1-2,3,0
				c1.1,1.1,2.4,2,2.9,2c0.5,0,2.5,0.7,4.5,1.5c3.6,1.5,3.6,1.5,2,4c-1.5,2.3-1.5,2.8,0.1,6.5c1.4,3.2,2.9,4.5,7.9,6.9
				c3.4,1.6,7.4,3.3,8.9,3.6c3.1,0.8,5.2,3.6,3.7,5.1c-0.6,0.6,0.1,2.2,2,4.4c2.3,2.7,3,4.4,3,8.1c0,3.9,0.5,5.1,3.2,7.5
				c6.4,5.8,6.9,6.4,6.9,8.3c0,1.1-0.6,2-1.2,2.1c-1.8,0.1-5.4,0.8-13.2,2.4c-7,1.5-35.1,5.8-45.5,7c-3,0.3-6.2,0.8-7,1
				s-4,0.6-7.1,1c-3.1,0.3-6.5,0.8-7.5,1c-3.3,0.6-10.6,1.5-21.9,2.6c-6.1,0.6-12.8,1.3-15,1.5s-9.4,0.7-16,1s-12.8,0.8-13.8,1.1
				C1348,461.2,1350.2,457.8,1354.3,452.9z"/>
			<path class="st0" d="M1492.8,429.2c-0.9-1.4,0.5-9.7,2.2-14.3c0.8-2.1,1.3-4.6,1-5.7c-0.5-2,1.5-3,6.1-3.1c1.9,0,2.2,0.4,1.6,1.7
				c-0.4,1-1.5,3.8-2.4,6.2c-0.9,2.5-2.4,5.3-3.4,6.2c-2,2.1-2.2,3.5-0.6,4c0.8,0.3,0.6,1.2-0.6,3.1
				C1495,430.4,1493.9,430.9,1492.8,429.2z"/>
		</g>
		<path id="US-VT" class="st0" d="M1520.3,266c0-4.1-4.9-19-7-21.2c-1.5-1.6-2.1-3.9-2.4-9.6c-0.2-4.1-0.7-8.6-1-10
			s-0.9-4.1-1.2-6.1l-0.6-3.6l9.4-2.1c5.1-1.2,11.4-2.4,14-2.8l4.6-0.6l0.7,4.7c0.6,4.3,0.4,5-2.4,8.2l-3.1,3.6l0.3,20.4
			c0.3,17.6,0.1,20.4-1.2,20.4c-0.8,0-3.4,0.3-5.8,0.6C1520.6,268.4,1520.3,268.3,1520.3,266z"/>
		<path id="US-WA" class="st0" d="M710.1,135.6c-14.5-5.2-21.4-6.7-35.3-7.7c-10.5-0.7-16.3-2.1-24.6-5.9c-4.1-1.9-10.4-4-13.9-4.7
			c-3.6-0.7-7-2.1-7.7-2.9c-0.7-0.9-1.2-3.8-1.2-6.6c0-4.6-0.5-5.5-4.3-9.6c-3.1-3.3-5.5-4.8-8.9-5.7l-4.6-1.2l0.8-3.8
			c1-4.6,5.6-33,6.9-43.2c0.5-4.1,1.5-7.8,2.3-8.2c1.5-0.9,4.2,0.6,11.3,6.6c4.3,3.6,16.1,8.9,20,9c0.6,0,0.9-1.4,0.7-3.1
			c-0.2-2.4,2.6-11.6,4.4-14.1c0.1-0.2,2.9,0.8,6.1,2.1s23.4,9.1,44.9,17.2s39.2,14.9,39.4,15.1c0.2,0.2-1.7,6.1-4.2,13.1
			s-7.1,20-10.3,28.8c-3.9,11-5.9,18.2-6.3,23.1l-0.6,7.1L710.1,135.6z"/>
		<path id="US-WI" class="st0" d="M1205.8,309.2c-20-0.7-20.4-0.9-21.9-13.5c-1.5-12.9-5.5-24.7-8.9-26.3
			c-1.2-0.6-6.6-5.1-12.1-10.1l-9.9-9.1l0-12.2c0-10.6,0.3-12.4,1.8-13.3c5.8-3.4,7.5-5.7,7.6-10.4c0.2-7.4,1.1-10.5,3.4-10.8
			c3.6-0.5,18.9-5.4,19.9-6.4c1.6-1.6,2.4-1.1,2.1,1.6c-0.2,2,0.3,2.8,2.3,3.5c3.2,1.2,6.7,4.7,7.6,7.5c0.5,1.7,2.7,2.7,10.4,4.9
			c11.8,3.3,26,8.3,28.9,10.2c3.2,2,9,12.2,9.8,17c0.4,2.3,1.3,4.2,1.9,4.2c1.9,0,5.7-4,7.2-7.6c1.7-4.1,3.9-4.6,2.8-0.6
			c-0.4,1.5-0.7,3.8-0.6,5c0.1,1.2-0.3,2.2-0.8,2.2c-2.1,0-4,3.3-5,8.8c-1.4,7.5-3,13.3-4.2,15.6c-2.7,5.1-3.6,18.3-2.3,32.9
			l0.7,7.8l-12.9-0.3C1226.6,309.9,1214.1,309.5,1205.8,309.2z"/>
		<path id="US-WV" class="st0" d="M1375.5,439.1c-6.4-2.4-17.9-15.1-18.6-20.7c-0.3-2.2,0.4-4.1,2.5-6.9c1.6-2.1,2.9-4.9,2.9-6.1
			c0-1.7,1-2.7,3.4-3.7c2.7-1.1,3.5-2.2,4-4.9c0.8-4.3,3.8-7.9,8.9-10.8c4.9-2.8,8.7-11.4,8.7-19.9c0-7.7,1.6-8.2,2.4-0.7
			c1,9.1,2.5,10.1,13.8,9.7l9.1-0.3l1.1,5c1,4.5,1.3,5,3.6,4.7c1.4-0.1,5-2,8.1-4.2c6.7-4.7,16.2-7.2,20.3-5.3
			c2.9,1.3,3.1,2.1,1.2,4.7c-1.3,1.8-1.5,1.8-5.6-0.4c-4.8-2.5-5.6-2.1-6.5,2.7c-0.6,3.2-4.8,7.9-8.6,9.3c-1.1,0.4-2,2.3-2.4,5.3
			c-0.8,5-1,5.2-7.3,5.8c-2.4,0.2-4.4,0.6-4.5,0.8c-0.1,0.2-2,4.7-4.1,9.9c-2.1,5.2-5.1,11.5-6.7,13.9c-1.6,2.4-2.9,4.7-2.9,5.1
			c0,0.7-5.6,2.8-16,6.2C1379.3,439.5,1377,439.7,1375.5,439.1z"/>
		<path id="US-WY" class="st0" d="M919.3,326.2c-4.7-1-11.7-2.5-15.5-3.4c-3.8-0.8-14.7-3.1-24-5.1c-19.6-4.1-60.5-12.8-71.5-15.2
			c-4.1-0.9-8.1-1.6-8.8-1.6c-0.7,0-1.1-0.7-0.8-1.6c0.3-0.9,1.2-4.5,2.1-8.1s2-7.6,2.5-9c0.5-1.4,1.2-3.9,1.4-5.6
			c0.5-3.1,3.5-16,10.5-44.9c2.1-8.8,4.4-18.5,5-21.6s1.7-6.4,2.4-7.4c1.4-1.9,1.2-1.9,50.6,8.5c15.2,3.2,39.2,8.2,49.5,10.4
			c0.6,0.1,6.1,1.3,12.3,2.6l11.3,2.4l-0.5,3.6c-0.3,2-3.2,19.8-6.6,39.6c-3.4,19.8-6.3,37.1-6.6,38.5c-0.7,4.5-1.4,8.4-2.5,13.9
			c-0.6,3-1,5.6-1,5.8C929.3,328.4,929,328.3,919.3,326.2z"/>
	</g>
</g>
</svg>
